<?xml version="1.0" encoding="utf-8"?>
<!-- Generator: Adobe Illustrator 24.0.2, SVG Export Plug-In . SVG Version: 6.00 Build 0)  -->
<svg version="1.1" class="icon-close" xmlns="http://www.w3.org/2000/svg" xmlns:xlink="http://www.w3.org/1999/xlink" x="0px" y="0px"
	 viewBox="0 0 384 384" style="enable-background:new 0 0 384 384;" xml:space="preserve">
<g>
	<g>
		<path d="M214.62,192l36.69-36.69c6.25-6.25,6.25-16.38,0-22.62s-16.38-6.25-22.62,0L192,169.38l-36.69-36.69
			c-6.24-6.25-16.38-6.25-22.62,0c-6.25,6.25-6.25,16.38,0,22.62L169.38,192l-36.69,36.69c-6.25,6.25-6.25,16.38,0,22.62
			c3.12,3.13,7.22,4.69,11.31,4.69s8.19-1.56,11.31-4.69L192,214.62l36.69,36.69c3.13,3.13,7.22,4.69,11.31,4.69
			s8.18-1.56,11.31-4.69c6.25-6.25,6.25-16.38,0-22.62L214.62,192z"/>
	</g>
</g>
</svg>
