<svg id="Layer_1" data-name="Layer 1" xmlns="http://www.w3.org/2000/svg" viewBox="0 0 492.28 497.88"><title>icons</title><path d="M441,348.81c13.64-24.23,16.61-53.16,8.36-81.46A120.39,120.39,0,0,0,397.27,199c-11.15-6.95-23.48-12-35.4-16.91-24.51-10.06-47.66-19.56-62.09-44.33-11.43-19.61-23.7-36.08-36.47-49C247,72.26,230.26,62.23,213.64,59c-21.79-4.31-43,3-63,21.68L111.73,117a98.64,98.64,0,0,0-29.81,58.13C78.61,198.44,83,222.24,94.64,244a459.41,459.41,0,0,0,69.55,97,459,459,0,0,0,70.3,61.34,5.39,5.39,0,0,0,7.71-1.16,5.87,5.87,0,0,0-1.8-7.87A446.1,446.1,0,0,1,172,333.68a446.54,446.54,0,0,1-67.64-94.34C94,219.84,90,198.5,93,177.67c5.2-36.08,32.23-57.27,32.23-57.27a101.37,101.37,0,0,0-4.38,18.37c-3.32,23.27,1.08,47.07,12.71,68.84a458.75,458.75,0,0,0,69.45,97,471,471,0,0,0,92.1,75.79c46.67,29.56,84.76,14.61,86.13,14.26l-9.32,8.66c-30.22,24.79-74.58,26.42-110.43,4-2.72-1.7-6.21-1-7.58,1.64-2.32,4.52,1.79,7.49,2.27,7.79,40.06,25,89.64,23.13,123.36-4.64l41.57-38.63A95.87,95.87,0,0,0,441,348.81Zm-67.09,35.8c-24.71,5.28-50.78.49-73.46-13.67a446.28,446.28,0,0,1-157.1-168c-10.42-19.5-14.36-40.83-11.4-61.67a88.45,88.45,0,0,1,26.71-52.11C176.09,72.83,194.18,66.38,212.38,70c17.34,3.43,33.21,15.48,46.53,29.72s24,31.07,31.33,43.1c18.7,30.56,48.26,41.46,68.16,49.63,12,4.92,23.3,9.57,33.56,16a107.83,107.83,0,0,1,46.65,61.27c7.4,25.36,4.74,51.28-7.49,73a86.14,86.14,0,0,1-15.91,20.41c-.08.07-14.55,15.81-41.33,21.54Zm0,0"/><path d="M316.24,435.31a114.81,114.81,0,0,1-60.59-17.69c-1.53-1-5-4.47-2.63-9.1a5.68,5.68,0,0,1,3.59-2.88,6.85,6.85,0,0,1,5.41.85c35.47,22.13,79.38,20.53,109.26-4l6.12-5.68c-13.23,3.55-45.37,8.11-82.83-15.62a472.11,472.11,0,0,1-92.29-75.95,459.57,459.57,0,0,1-69.6-97.18c-11.74-22-16.17-46-12.82-69.45a102,102,0,0,1,3.32-15.1C116.28,130,98.11,149.26,94,177.81c-3,20.58.94,41.7,11.29,61.06A444.84,444.84,0,0,0,172.77,333,444.74,444.74,0,0,0,241,392.51a6.89,6.89,0,0,1,2.06,9.23,6,6,0,0,1-3.93,2.61,6.81,6.81,0,0,1-5.19-1.18A461.67,461.67,0,0,1,93.75,244.48c-11.73-22-16.16-46-12.82-69.45a99.64,99.64,0,0,1,30.12-58.72L150,79.9C170.22,61,191.71,53.59,213.84,58c16.81,3.32,33.7,13.45,50.18,30.09,12.82,12.93,25.14,29.48,36.62,49.17,14.26,24.47,37.26,33.91,61.6,43.9,12,4.91,24.32,10,35.55,17a121.34,121.34,0,0,1,52.49,68.95c8.34,28.56,5.34,57.76-8.44,82.23h0a96.89,96.89,0,0,1-20.06,24.95c-41.5,38.57-41.57,38.63-41.6,38.65C362.1,427.79,339.5,435.31,316.24,435.31Zm-57.92-27.9a4.18,4.18,0,0,0-1.17.16,3.7,3.7,0,0,0-2.35,1.87c-2,3.95,1.87,6.45,1.91,6.48,39.7,24.76,88.8,22.93,122.19-4.56.38-.34,41.12-38.21,41.53-38.59a95,95,0,0,0,19.67-24.46h0c13.51-24,16.44-52.64,8.26-80.68a119.36,119.36,0,0,0-51.62-67.81c-11.09-6.92-23.38-12-35.25-16.83-24.68-10.13-48-19.7-62.58-44.76-11.39-19.54-23.61-35.95-36.31-48.76-16.19-16.36-32.73-26.29-49.15-29.54-21.47-4.25-42.36,3-62.11,21.44l-38.93,36.4a97.72,97.72,0,0,0-29.5,57.54C79.63,198.36,84,222,95.52,243.54a459.79,459.79,0,0,0,139.55,158,4.9,4.9,0,0,0,3.67.85,4,4,0,0,0,2.62-1.74,4.87,4.87,0,0,0-1.54-6.51,447.14,447.14,0,0,1-68.51-59.78,447.2,447.2,0,0,1-67.8-94.54C93,220.07,89,198.53,92,177.53c5.2-36.06,32.33-57.7,32.6-57.92l2.64-2.07-1.07,3.18a100.51,100.51,0,0,0-4.34,18.19c-3.29,23.05,1.07,46.64,12.6,68.23a457.75,457.75,0,0,0,69.3,96.75,470.39,470.39,0,0,0,91.9,75.63c40.94,25.94,75.3,17.5,84.86,14.29l.49-.15,3.82-1L372.6,404C342,429.12,297.16,430.77,261,408.19A5,5,0,0,0,258.32,407.41Zm95.77-19.71a102.42,102.42,0,0,1-54.2-15.91A447.19,447.19,0,0,1,142.44,203.41c-10.53-19.69-14.5-41.23-11.51-62.28a89.51,89.51,0,0,1,27-52.7C175.66,71.87,194,65.34,212.57,69c15.47,3.06,31.3,13.16,47.07,30,12.73,13.62,23.05,29.51,31.46,43.26,17.63,28.82,44.87,39.93,64.76,48l2.92,1.19c12.08,5,23.4,9.62,33.71,16.05a108.86,108.86,0,0,1,47.08,61.84C447,295,444.35,321.21,432,343.15A87.16,87.16,0,0,1,415.9,363.8c-1.58,1.65-16.17,16.3-41.81,21.79h0A95.77,95.77,0,0,1,354.09,387.7ZM202.62,70C188,70,173.45,76.67,159.31,89.9a87.45,87.45,0,0,0-26.4,51.51c-2.93,20.63,1,41.74,11.29,61.06A445.23,445.23,0,0,0,301,370.09c22.39,14,48.22,18.78,72.72,13.54,25.06-5.36,39.25-19.61,40.78-21.22l.11-.11a85.14,85.14,0,0,0,15.69-20.13c12.09-21.47,14.72-47.12,7.4-72.22a106.9,106.9,0,0,0-46.22-60.71c-10.16-6.34-21.41-11-33.32-15.85l-3-1.23C335,184,307.37,172.71,289.39,143.32c-8.36-13.66-18.6-29.45-31.21-42.94-15.48-16.54-31-26.44-46-29.42A49.25,49.25,0,0,0,202.62,70Z"/><path d="M400.26,239.17c-13.1-14-42.18-26.39-47.88-28.73-20.92-8.59-44.64-18.32-63.87-38.88-2.62-2.81-11.54-15.45-19.4-26.61-9.28-13.17-18.87-26.78-23.59-32.28-11.66-13.56-24.14-21.09-37.09-22.37-8.8-.87-22.17.8-35.94,13.68-11.74,11-18.08,29.16-17.39,49.87a6.2,6.2,0,0,0,5.78,5.9,5.08,5.08,0,0,0,5.4-5.34c-.58-17.65,4.58-32.92,14.19-41.9,8.7-8.14,18.31-12,27.79-11,9.79,1,19.56,7,29.05,18.11,4.33,5,14.17,19,22.85,31.32,10.76,15.25,17.5,24.75,20.51,28,21.1,22.57,46.14,32.85,68.24,41.92,14.59,6,34.74,16.31,43.51,25.69,20.74,22.18,25.56,54.8,11.74,79.34a58.28,58.28,0,0,1-39.07,28.63c-12.61,2.73-32.38-3.46-46.68-10.15-27.51-12.9-56.47-35.49-86.08-67.16-33.61-35.94-54.7-69.76-62.67-100.51a6.13,6.13,0,0,0-6.85-4.55,5.12,5.12,0,0,0-4,6.52c8.5,32.76,30.58,68.38,65.64,105.88,30.72,32.84,61,56.37,89.92,69.94,29.9,14,47.66,12.4,53.9,11A68.23,68.23,0,0,0,414,332c16.17-28.71,10.51-66.88-13.75-92.82Zm0,0"/><path d="M359.21,367.34c-9.41,0-24.43-2.24-45.23-12-29.07-13.63-59.43-37.23-90.23-70.17-35.17-37.62-57.34-73.38-65.88-106.31a6.36,6.36,0,0,1,.75-5.09,6,6,0,0,1,4-2.67,7.16,7.16,0,0,1,8,5.28c7.93,30.59,28.94,64.26,62.44,100.09,29.53,31.57,58.38,54.09,85.78,66.93,14.15,6.63,33.68,12.76,46,10.09a57.38,57.38,0,0,0,38.41-28.15c13.61-24.16,8.84-56.31-11.6-78.16-8.66-9.27-28.66-19.5-43.16-25.46-22.2-9.11-47.35-19.43-68.59-42.15-3.09-3.3-9.84-12.82-20.59-28.08-8.66-12.29-18.48-26.22-22.79-31.24-9.32-10.85-18.87-16.83-28.39-17.77-9.19-.91-18.53,2.81-27,10.75C171.76,122,166.7,137,167.28,154.38a6.08,6.08,0,0,1-6.45,6.37,7.23,7.23,0,0,1-6.73-6.86c-.7-21,5.75-39.46,17.71-50.64,14-13.14,27.71-14.84,36.72-14,13.21,1.31,25.91,9,37.74,22.72,4.71,5.48,14.21,18.94,23.38,32l.28.39c7.44,10.57,16.71,23.72,19.31,26.5,19.08,20.41,42.69,30.1,63.52,38.64,5.73,2.36,35,14.81,48.23,29,24.56,26.26,30.27,64.91,13.9,94a69.3,69.3,0,0,1-46.37,34A44.27,44.27,0,0,1,359.21,367.34ZM163.79,173a4.33,4.33,0,0,0-.8.07,4,4,0,0,0-2.68,1.78,4.34,4.34,0,0,0-.5,3.5c8.45,32.61,30.46,68.08,65.4,105.45C255.84,316.56,286,340,314.83,353.54c29.63,13.89,47.12,12.3,53.26,11a67.29,67.29,0,0,0,45.05-33c16-28.33,10.36-66-13.61-91.65-13-13.86-41.87-26.16-47.53-28.48-21-8.63-44.84-18.41-64.22-39.13-2.7-2.89-11.62-15.55-19.48-26.72l-.28-.39c-9.15-13-18.62-26.4-23.26-31.81C233.27,100,221,92.54,208.33,91.29c-8.59-.84-21.66.8-35.16,13.42-11.53,10.79-17.75,28.68-17.07,49.11a5.19,5.19,0,0,0,4.83,4.93,4.06,4.06,0,0,0,4.35-4.31c-.59-17.93,4.69-33.48,14.5-42.66,8.92-8.34,18.8-12.25,28.58-11.28,10.06,1,20,7.2,29.71,18.46,4.38,5.09,14.23,19.07,22.91,31.39,10.75,15.24,17.48,24.72,20.42,27.86,21,22.4,45.88,32.64,67.88,41.67,14.69,6,35,16.44,43.87,25.94,21,22.49,25.92,55.6,11.88,80.51a59.31,59.31,0,0,1-39.73,29.12c-12.85,2.78-32.87-3.46-47.31-10.23-27.63-13-56.69-35.62-86.39-67.38-33.73-36.07-54.9-70-62.91-100.94A5.21,5.21,0,0,0,163.79,173Z"/></svg>