<svg id="Livello_1" data-name="Livello 1" xmlns="http://www.w3.org/2000/svg" viewBox="0 0 285.4 384"><title>icons-empty</title><path d="M96.1,56.6A20.8,20.8,0,0,0,75.4,77.4v62.4a20.8,20.8,0,1,0,41.5,0V77.4A20.8,20.8,0,0,0,96.1,56.6Zm9.6,83.2a9.6,9.6,0,0,1-19.1,0V77.4a9.6,9.6,0,1,1,19.1,0Zm0,0" transform="translate(-43.7 -29.3)"/><path d="M96.1,199.6a20.7,20.7,0,0,0-20.7,20.7v115a20.8,20.8,0,1,0,41.5,0v-115a20.8,20.8,0,0,0-20.8-20.7Zm9.6,135.7a9.6,9.6,0,0,1-19.1,0v-115a9.6,9.6,0,0,1,19.1,0Zm0,0" transform="translate(-43.7 -29.3)"/><path d="M145.5,96.8a5.6,5.6,0,0,0-5.6,5.6v12.1a5.7,5.7,0,0,0,5.6,5.7,5.8,5.8,0,0,0,5.7-5.7V102.4a5.7,5.7,0,0,0-5.7-5.6Zm0,0" transform="translate(-43.7 -29.3)"/><path d="M279.3,96.8a5.6,5.6,0,0,0-5.6,5.6v12.1a5.7,5.7,0,0,0,5.6,5.7,5.8,5.8,0,0,0,5.7-5.7V102.4a5.7,5.7,0,0,0-5.7-5.6Zm0,0" transform="translate(-43.7 -29.3)"/><path d="M192.2,125.2a5.7,5.7,0,0,0,8-.5,16.6,16.6,0,0,1,24.5,0,5.6,5.6,0,0,0,8.5-7.4,28,28,0,0,0-41.5,0,5.6,5.6,0,0,0,.5,7.9Zm0,0" transform="translate(-43.7 -29.3)"/><path d="M291.7,29.3H81A37.4,37.4,0,0,0,43.7,66.7V349.2a37.3,37.3,0,0,0,31.7,36.9v7.6A19.6,19.6,0,0,0,95,413.3h24.8a19.7,19.7,0,0,0,19.7-19.6v-7.1h93.7v7.1a19.7,19.7,0,0,0,19.7,19.6h24.8a19.6,19.6,0,0,0,19.6-19.6v-7.6a37.4,37.4,0,0,0,31.8-36.9V66.7a37.5,37.5,0,0,0-37.4-37.4ZM128.2,393.7a8.4,8.4,0,0,1-8.4,8.4H95a8.5,8.5,0,0,1-8.4-8.4v-7.1h41.6Zm149.5,8.4H252.9a8.5,8.5,0,0,1-8.4-8.4v-7.1h41.6v7.1a8.5,8.5,0,0,1-8.4,8.4Zm40.1-225.5H270.1a5.6,5.6,0,0,0-5.6,5.6,5.7,5.7,0,0,0,5.6,5.7h47.7V349.2a26.1,26.1,0,0,1-26.1,26.1H81a26.1,26.1,0,0,1-26.1-26.1V187.9H247.6a5.7,5.7,0,0,0,5.7-5.7,5.6,5.6,0,0,0-5.7-5.6H54.9V66.7A26.1,26.1,0,0,1,81,40.6H291.7a26.1,26.1,0,0,1,26.1,26.1Zm0,0" transform="translate(-43.7 -29.3)"/></svg>