
<!-- Generator: Adobe Illustrator 24.0.2, SVG Export Plug-In . SVG Version: 6.00 Build 0)  -->
<svg version="1.1"  id="icon-fridge" class="icon-menu"  xmlns="http://www.w3.org/2000/svg" xmlns:xlink="http://www.w3.org/1999/xlink" 
x="0px" y="0px"
	 viewBox="0 0 492.3 497.9" style="enable-background:new 0 0 492.3 497.9;" xml:space="preserve">
<path d="M350.4,436.1h3.9c11.6,0,21-9.4,21-21l0,0V115.3c0-3.1-2.5,3-5.6,3s-5.6,4.4-5.6,7.5v79H204c-3.1,0-5.6,2.5-5.6,5.6
	s2.5,5.6,5.6,5.6c0,0,0,0,0,0h160.1v199.1c0,5.4-4.4,9.8-9.8,9.8h-225c-5.4,0-9.8-4.4-9.8-9.8V216h101.7c3.1,0,2.2-2.5,2.2-5.6
	s-5.3-5.6-2.2-5.6c41.7,0-4.9,0-4.9,0h-96.8V96.6c0-5.4,4.3-9.7,9.7-9.7c0,0,0.1,0,0.1,0h225c5.4-0.1,9.7,4.2,9.8,9.6
	c0,0,0,0.1,0,0.1v42.1c0,3.1,2.5-0.4,5.6-0.4l0,0l0,0c3.1,0,5.6-2.5,5.6-5.6v0V96.6c0-11.6-9.4-21-21-21l0,0h-225
	c-11.6,0-21,9.4-21,21l0,0v318.5c0,11.6,9.4,21,21,21l0,0h3.9 M133.2,436.1h221.1 M144.5,436.1h19.9 M319.2,436.1h19.9"/>
<path d="M150.8,129.2v33c-0.7,5.5,5.9,10.4,14.7,10.8c8.8,0.4,16.5-3.7,17.2-9.2c0.1-0.5,0.1-1.1,0-1.6v-33
	c0.7-5.5-5.9-10.4-14.7-10.8s-16.5,3.7-17.2,9.2C150.7,128.1,150.7,128.7,150.8,129.2z M171.4,129.2v33c0.4,1.6-1.4,3.1-4,3.4
	c-2.6,0.2-5-0.9-5.3-2.5c-0.1-0.3-0.1-0.6,0-0.9v-33c-0.4-1.6,1.4-3.1,4-3.4c2.6-0.2,5,0.9,5.3,2.5
	C171.5,128.6,171.5,128.9,171.4,129.2z"/>
</svg>
