
<!-- Generator: Adobe Illustrator 24.0.2, SVG Export Plug-In . SVG Version: 6.00 Build 0)  -->
<svg version="1.1" id="icon-add" xmlns="http://www.w3.org/2000/svg" xmlns:xlink="http://www.w3.org/1999/xlink" x="0px"
	 y="0px" viewBox="0 0 492.3 497.9" xml:space="preserve">
<path d="M242.3,436L242.3,436c-17.9,0-32.5-14.6-32.5-32.5v-304c0-17.9,14.6-32.5,32.5-32.5h0c17.9,0,32.5,14.6,32.5,32.5v304
	C274.8,421.4,260.2,436,242.3,436z"/>
<path d="M57.8,251.5L57.8,251.5c0-17.9,14.6-32.5,32.5-32.5h304c17.9,0,32.5,14.6,32.5,32.5v0c0,17.9-14.6,32.5-32.5,32.5h-304
	C72.3,284,57.8,269.4,57.8,251.5z"/>
</svg>
