<svg id="Layer_1" data-name="Layer 1" xmlns="http://www.w3.org/2000/svg" viewBox="0 0 492.28 497.88"><title>icons</title><path d="M185.45,213.46,260.8,170a5.21,5.21,0,0,0-5.21-9l-75.35,43.5-75.36-43.5a5.21,5.21,0,1,0-5.21,9L175,213.46v49a5.22,5.22,0,1,0,10.43,0Zm0,0"/><path d="M180.24,268.69a6.23,6.23,0,0,1-6.22-6.22V214L99.17,170.82a6.22,6.22,0,0,1-2.27-8.49,6.21,6.21,0,0,1,8.48-2.27l74.86,43.22,74.85-43.22a6.21,6.21,0,1,1,6.21,10.76L186.45,214v48.43A6.22,6.22,0,0,1,180.24,268.69Zm-78-107.46a4.08,4.08,0,0,0-1.09.14,4.22,4.22,0,0,0-1,7.72L176,212.88v49.59a4.22,4.22,0,1,0,8.43,0V212.88l75.85-43.79a4.21,4.21,0,0,0-4.21-7.3l-75.85,43.8-75.86-43.8A4.23,4.23,0,0,0,102.28,161.23Z"/><path d="M302.35,238.19,332.16,221a5.21,5.21,0,1,0-5.21-9l-29.81,17.21a5.21,5.21,0,1,0,5.21,9Zm0,0"/><path d="M299.75,239.89a6.28,6.28,0,0,1-1.6-.21,6.21,6.21,0,0,1-1.51-11.39l29.81-17.2a6.19,6.19,0,0,1,8.48,2.27,6.2,6.2,0,0,1-2.27,8.49l-29.81,17.2A6.12,6.12,0,0,1,299.75,239.89Zm29.8-27.64a4.14,4.14,0,0,0-2.1.57L297.64,230a4.21,4.21,0,0,0-1.54,5.75,4.16,4.16,0,0,0,2.56,2,4.24,4.24,0,0,0,3.19-.43h0l29.81-17.21a4.22,4.22,0,0,0-2.11-7.86Z"/><path d="M329.55,383.25a5.22,5.22,0,0,0,5.22-5.21V303.91L399,266.84a5.21,5.21,0,0,0-5.22-9l-64.2,37.06-64.2-37.06a5.21,5.21,0,0,0-5.21,9l64.2,37.06V378a5.21,5.21,0,0,0,5.21,5.21Zm0,0"/><path d="M329.55,384.25a6.22,6.22,0,0,1-6.21-6.21V304.49l-63.7-36.78A6.21,6.21,0,0,1,265.85,257l63.7,36.78L393.25,257a6.21,6.21,0,0,1,6.22,10.76l-63.7,36.78V378A6.22,6.22,0,0,1,329.55,384.25Zm-66.8-126.13a4.53,4.53,0,0,0-1.09.14,4.16,4.16,0,0,0-2.56,2,4.21,4.21,0,0,0,1.54,5.75l64.7,37.36V378a4.22,4.22,0,0,0,8.43,0v-74.7L398.47,266a4.22,4.22,0,0,0,1.54-5.76,4.23,4.23,0,0,0-5.76-1.54L329.55,296l-64.7-37.35A4.14,4.14,0,0,0,262.75,258.12Z"/><path d="M77.52,279.12l94.61,54.62a16.24,16.24,0,0,0,16.21,0l45.5-26.27v40.24a14.67,14.67,0,0,0,7.32,12.68l81.08,46.81a14.65,14.65,0,0,0,14.63,0L418,360.39a14.69,14.69,0,0,0,7.32-12.68V312.52a5.22,5.22,0,0,0-10.43,0v35.19a4.22,4.22,0,0,1-2.1,3.65l-81.08,46.81a4.22,4.22,0,0,1-4.21,0l-81.08-46.81a4.23,4.23,0,0,1-2.11-3.65V254.09a4.2,4.2,0,0,1,2.11-3.64l81.08-46.82a4.22,4.22,0,0,1,4.21,0l81.08,46.82a4.19,4.19,0,0,1,2.1,3.64V288.2a5.22,5.22,0,0,0,10.43,0V254.09A14.67,14.67,0,0,0,418,241.42L336.87,194.6a14.7,14.7,0,0,0-14.63,0l-31.18,18V155.83a16.22,16.22,0,0,0-8.11-14L188.34,87.16a16.24,16.24,0,0,0-16.21,0L152.42,98.54a5.21,5.21,0,0,0,5.21,9l19.71-11.38a5.81,5.81,0,0,1,5.79,0l94.61,54.63a5.8,5.8,0,0,1,2.89,5v62.79l-39.47,22.8a14.65,14.65,0,0,0-7.32,12.67v41.34l-50.71,29.28a5.81,5.81,0,0,1-5.79,0L82.73,270.09a5.79,5.79,0,0,1-2.89-5V155.83a5.77,5.77,0,0,1,2.89-5l53.67-31a5.21,5.21,0,0,0-5.21-9l-53.67,31a16.24,16.24,0,0,0-8.11,14V265.08a16.27,16.27,0,0,0,8.11,14Zm0,0"/><path d="M329.56,410.16a15.64,15.64,0,0,1-7.82-2.09l-81.08-46.82a15.66,15.66,0,0,1-7.82-13.54V309.2l-44,25.41a17.28,17.28,0,0,1-17.21,0L77,280a17.27,17.27,0,0,1-8.61-14.9V155.83A17.27,17.27,0,0,1,77,140.92l53.67-31a6.21,6.21,0,0,1,6.21,10.76l-53.67,31a4.79,4.79,0,0,0-2.39,4.15V265.08a4.78,4.78,0,0,0,2.39,4.14l94.61,54.63a4.82,4.82,0,0,0,4.79,0l50.21-29V254.09a15.68,15.68,0,0,1,7.82-13.54l39-22.5V155.83a4.79,4.79,0,0,0-2.39-4.15L182.63,97.06a4.75,4.75,0,0,0-4.78,0l-19.72,11.38a6.21,6.21,0,1,1-6.21-10.76L171.63,86.3a17.23,17.23,0,0,1,17.21,0l94.61,54.62a17.25,17.25,0,0,1,8.61,14.91v55l29.68-17.13a15.64,15.64,0,0,1,15.63,0l81.08,46.81a15.68,15.68,0,0,1,7.82,13.54V288.2a6.22,6.22,0,0,1-12.43,0V254.09a3.22,3.22,0,0,0-1.6-2.78L331.16,204.5a3.23,3.23,0,0,0-3.21,0l-81.08,46.81a3.23,3.23,0,0,0-1.61,2.78v93.62a3.21,3.21,0,0,0,1.61,2.78L328,397.31a3.23,3.23,0,0,0,3.21,0l81.08-46.82a3.2,3.2,0,0,0,1.6-2.78V312.52a6.22,6.22,0,0,1,12.43,0v35.19a15.68,15.68,0,0,1-7.82,13.54l-81.08,46.82A15.63,15.63,0,0,1,329.56,410.16ZM234.84,305.74v42a13.67,13.67,0,0,0,6.82,11.81l81.08,46.81a13.68,13.68,0,0,0,13.63,0l81.08-46.82a13.67,13.67,0,0,0,6.82-11.81V312.52a4.22,4.22,0,0,0-8.43,0v35.19a5.24,5.24,0,0,1-2.6,4.52L332.16,399a5.24,5.24,0,0,1-5.21,0l-81.08-46.81a5.23,5.23,0,0,1-2.61-4.52V254.09a5.22,5.22,0,0,1,2.61-4.51L327,202.77a5.21,5.21,0,0,1,5.21,0l81.08,46.81a5.23,5.23,0,0,1,2.6,4.51V288.2a4.22,4.22,0,0,0,8.43,0V254.09a13.67,13.67,0,0,0-6.82-11.81l-81.08-46.81a13.65,13.65,0,0,0-13.63,0l-32.68,18.87V155.83a15.27,15.27,0,0,0-7.61-13.18L187.84,88a15.24,15.24,0,0,0-15.21,0L152.92,99.41a4.21,4.21,0,0,0-1.54,5.75,4.14,4.14,0,0,0,2.55,2,4.21,4.21,0,0,0,3.2-.42l19.71-11.38a6.8,6.8,0,0,1,6.79,0L278.24,150a6.81,6.81,0,0,1,3.39,5.88V219.2l-40,23.08a13.67,13.67,0,0,0-6.82,11.81V296l-51.21,29.57a6.83,6.83,0,0,1-6.78,0L82.23,271a6.81,6.81,0,0,1-3.39-5.87V155.83A6.8,6.8,0,0,1,82.23,150l53.67-31a4.21,4.21,0,0,0-1-7.71,4.14,4.14,0,0,0-3.19.42L78,142.65a15.27,15.27,0,0,0-7.61,13.18V265.08A15.27,15.27,0,0,0,78,278.25l94.61,54.63a15.29,15.29,0,0,0,15.21,0Z"/><path d="M109.39,149.47a5.22,5.22,0,0,0,7.12,1.91l30.86-17.82a5.21,5.21,0,0,0-5.21-9L111.3,142.35a5.21,5.21,0,0,0-1.91,7.12Zm0,0"/><path d="M113.92,153.07a6.2,6.2,0,0,1-5.39-3.1h0a6.21,6.21,0,0,1,2.28-8.49l30.86-17.82a6.21,6.21,0,1,1,6.21,10.76L117,152.24A6.11,6.11,0,0,1,113.92,153.07Zm-3.66-4.1a4.21,4.21,0,0,0,5.75,1.54l30.86-17.82a4.21,4.21,0,1,0-4.21-7.29L111.8,143.22a4.18,4.18,0,0,0-1.54,5.75Z"/></svg>