
<!-- Generator: Adobe Illustrator 24.0.2, SVG Export Plug-In . SVG Version: 6.00 Build 0)  -->
<svg version="1.1"  id="icon-buy" class="icon-menu"  xmlns="http://www.w3.org/2000/svg" xmlns:xlink="http://www.w3.org/1999/xlink" x="0px" y="0px"
	 viewBox="0 0 35 35" style="enable-background:new 0 0 35 35;" xml:space="preserve">
<path d="M29.47,10.38c-0.03-0.34-0.32-0.61-0.66-0.6h-5.05V7.86c0-3.12-2.53-5.65-5.65-5.65c-3.12,0-5.65,2.53-5.65,5.65v1.91H7.41
	c-0.34,0-0.63,0.26-0.66,0.6L5.01,30.39c-0.08,0.93,0.23,1.85,0.86,2.53C6.5,33.61,7.39,34,8.32,34H27.9c0.93,0,1.82-0.39,2.45-1.08
	c0.63-0.69,0.94-1.6,0.87-2.53L29.47,10.38z M13.79,7.86c0-2.39,1.93-4.32,4.32-4.32s4.32,1.93,4.32,4.32v1.91h-8.64V7.86z
	 M29.37,32.03c-0.38,0.41-0.91,0.65-1.47,0.64H8.31c-0.56,0-1.09-0.23-1.47-0.65c-0.38-0.41-0.57-0.96-0.52-1.52l1.69-19.4h4.45
	v4.15c-1.07,0.33-1.74,1.39-1.57,2.5c0.17,1.11,1.12,1.92,2.23,1.92c1.12,0,2.07-0.82,2.23-1.92c0.17-1.11-0.5-2.17-1.57-2.5V11.1
	h8.64v4.15c-1.07,0.33-1.74,1.39-1.57,2.5c0.17,1.11,1.12,1.92,2.23,1.92s2.07-0.82,2.23-1.92c0.17-1.11-0.5-2.17-1.57-2.5V11.1
	h4.44l1.69,19.4C29.94,31.06,29.75,31.61,29.37,32.03L29.37,32.03z M13.02,16.48c0.07,0.01,0.13,0.01,0.2,0
	c0.49,0.05,0.86,0.48,0.83,0.97c-0.03,0.49-0.43,0.88-0.93,0.88s-0.9-0.39-0.93-0.88C12.17,16.97,12.53,16.54,13.02,16.48
	L13.02,16.48z M22.99,16.48c0.07,0.01,0.13,0.01,0.2,0c0.49,0.05,0.86,0.48,0.83,0.97c-0.03,0.49-0.43,0.88-0.93,0.88
	c-0.49,0-0.9-0.39-0.93-0.88S22.5,16.54,22.99,16.48L22.99,16.48z"/>
</svg>
