<svg id="Layer_1" data-name="Layer 1" xmlns="http://www.w3.org/2000/svg" viewBox="0 0 492.28 497.88"><title>icons</title><path d="M238.12,141.27a48.14,48.14,0,0,0-74.68,44.58,5.66,5.66,0,1,0,11.26-1.07,36.83,36.83,0,0,1,57.13-34.1,5.66,5.66,0,0,0,6,.15,5.77,5.77,0,0,0,1.81-1.71,5.67,5.67,0,0,0-1.57-7.85Zm0,0"/><path d="M169.07,192.47a7.18,7.18,0,0,1-7.13-6.48,49.64,49.64,0,0,1,77-46h0a7.17,7.17,0,0,1,2,9.93,7.16,7.16,0,0,1-9.93,2,35.32,35.32,0,0,0-54.8,32.71,7.18,7.18,0,0,1-6.45,7.8C169.52,192.46,169.3,192.47,169.07,192.47Zm42.27-57.78a46.55,46.55,0,0,0-46.41,51,4.16,4.16,0,1,0,8.28-.78,38.33,38.33,0,0,1,59.46-35.49,4.16,4.16,0,0,0,4.44.11,4.1,4.1,0,0,0,1.33-1.26,4.16,4.16,0,0,0-1.15-5.76h0A46.78,46.78,0,0,0,211.34,134.69Z"/><path d="M322.17,141.48a48.36,48.36,0,0,0-50.39,10.35,5.66,5.66,0,1,0,7.84,8.16,36.82,36.82,0,0,1,62.24,23.51,5.66,5.66,0,1,0,11.28-.94,48.36,48.36,0,0,0-31-41.08Zm0,0"/><path d="M347.49,190.19a7.17,7.17,0,0,1-7.12-6.57,35.33,35.33,0,0,0-59.71-22.55,7.12,7.12,0,0,1-5,2h-.14a7.16,7.16,0,0,1-4.82-12.32,49.64,49.64,0,0,1,83.9,31.69,7.12,7.12,0,0,1-3.47,6.74,7.35,7.35,0,0,1-3.07,1Zm-42.23-42a38.21,38.21,0,0,1,38.1,35.15,4.16,4.16,0,0,0,4.49,3.81,4.24,4.24,0,0,0,1.78-.57,4.14,4.14,0,0,0,2-3.92,46.64,46.64,0,0,0-78.83-29.77,4.16,4.16,0,0,0,2.8,7.15,4.2,4.2,0,0,0,3-1.16A38.54,38.54,0,0,1,305.26,148.22Z"/><path d="M156.77,220.48a48.15,48.15,0,0,0-11.58,86.21,5.67,5.67,0,0,0,6,.12A5.75,5.75,0,0,0,153,305a5.68,5.68,0,0,0-1.66-7.84,36.82,36.82,0,0,1,8.85-65.94,5.66,5.66,0,0,0-3.45-10.78Zm0,0"/><path d="M148.28,309.11a7.19,7.19,0,0,1-3.9-1.16,49.64,49.64,0,0,1,11.93-88.89h0a7.16,7.16,0,1,1,4.37,13.63,35.32,35.32,0,0,0-8.49,63.25,7.17,7.17,0,0,1,2.09,9.91,7,7,0,0,1-2.32,2.24A7.17,7.17,0,0,1,148.28,309.11Zm8.94-87.2A46.64,46.64,0,0,0,146,305.43a4.13,4.13,0,0,0,4.41.09,4.22,4.22,0,0,0,1.35-1.31,4.15,4.15,0,0,0-1.22-5.75,38.32,38.32,0,0,1,9.21-68.62,4.16,4.16,0,1,0-2.54-7.93Z"/><path d="M342.36,112.78a60.06,60.06,0,0,0-4.27-8.71c-17.91-30-58.59-38.84-90.68-19.68a71.42,71.42,0,0,0-16,12.93c-20.71-12.15-47.38-11.77-69.38,1.36s-35,36.43-34.14,60.43a72,72,0,0,0-44.78,34.41A5.66,5.66,0,1,0,93,199a59.92,59.92,0,0,1,21.72-22.27,60.57,60.57,0,0,1,20.19-7.6,5.64,5.64,0,0,0,4.61-6.23c-2.54-21.33,8.56-42.73,28.3-54.51s43.83-11.4,61.4,1a5.66,5.66,0,0,0,7.68-1.1,60.24,60.24,0,0,1,16.27-14.16c26.73-16,60.44-8.88,75.16,15.77a48.58,48.58,0,0,1,4.89,11.24,5.65,5.65,0,0,0,7,3.84c24-7,49.09,2,61,22,14.71,24.65,4.94,57.68-21.79,73.64l-3.19,1.92c-6.29,3.81-11.87,7.19-17.58,8.9a.8.8,0,0,0-.15,0,27.24,27.24,0,0,1-6,1.1h-.08c-.59,0-1.17.05-1.75,0h-.34c-.53,0-1.06,0-1.59-.1l-.47-.05c-.52-.06-1.05-.13-1.57-.23l-.46-.08c-.55-.11-1.1-.23-1.66-.38l-.32-.09c-.61-.16-1.21-.34-1.82-.55-.44-.15-.87-.28-1.31-.41l-.43-.12-.93-.23-.45-.1c-.41-.09-.81-.16-1.22-.23l-.54-.07-.82-.11-.54,0c-.43,0-.86-.07-1.28-.08h-.17c-.44,0-.87,0-1.31,0h-.2a28.57,28.57,0,0,0-22.08,11.81,134.68,134.68,0,0,1-28.7,28.93c-1.62,1.17-3.25,2.31-4.89,3.38l-.08.05c-.8.53-1.6,1-2.41,1.54s-1.68,1-2.53,1.51l-9.19,5.35-.13.07c-.63.37-1.27.72-1.91,1.08l-.91.5-.73.38c-.87.46-1.76.91-2.69,1.37h0a125.62,125.62,0,0,1-39.69,11.6,29.23,29.23,0,0,0-19,10.6l-.18.19c-.53.68-1,1.37-1.48,2.09l-.08.13c-.38.59-.74,1.19-1.07,1.8a.25.25,0,0,1,0,.07c-.13.26-.27.52-.39.78s-.21.42-.3.62-.24.51-.35.77-.3.73-.45,1.1c-.06.17-.12.35-.18.51-.14.4-.27.8-.4,1.21a1.72,1.72,0,0,1-.07.21c-.13.48-.26,1-.37,1.45l-.09.4c-.11.49-.2,1-.28,1.46a.09.09,0,0,1,0,.05c-.09.57-.2,1.13-.32,1.68l-.09.43c-.12.49-.25,1-.38,1.42-.06.22-.13.44-.2.66l-.27.76c-.15.44-.32.86-.5,1.28l-.18.42q-.41.9-.87,1.74h0l-.5.87c-.05.08-.11.15-.15.23-.29.46-.58.9-.9,1.33l-.44.6c-.21.27-.42.54-.64.8s-.5.6-.77.88c-4.22,4.68-10.16,8.18-16.91,12.15l-3.34,2c-26.72,15.95-60.44,8.88-75.16-15.77C79.08,312.2,83,285.84,100.6,268a5.66,5.66,0,0,0,0-8A48.44,48.44,0,0,1,93,250.38a49,49,0,0,1-6.77-28.23,5.66,5.66,0,0,0-11.3-.7,60.3,60.3,0,0,0,8.35,34.74,61.26,61.26,0,0,0,5.64,7.89c-18,21.32-21.29,51-7.64,73.84,17.92,30,58.6,38.84,90.68,19.69,1.1-.65,2.19-1.3,3.28-1.93l3.16-1.87a83.07,83.07,0,0,0,13.7-9.71c66.84,16.62,91.55,47.6,99.12,60.29l11.28,18.89c2.36,3.94,8,8.1,21.53,5.47,8.68-1.68,18.91-5.86,28.81-11.78s18.45-12.93,24-19.76c8.74-10.67,7.76-17.61,5.41-21.56L371,356.76c-9.32-15.61-13.92-35.94-13.67-60.4a5.66,5.66,0,1,0-11.31-.12c-.28,26.58,4.86,48.9,15.26,66.32l11.26,18.86c.18.52-.15,3.64-5,9.37S355.39,402.25,347,407.25s-17,8.63-24.2,10.19c-7.37,1.6-10.27.41-10.62,0l-11.28-18.89c-22.81-38.22-73.49-56.67-101.14-64.17a35.53,35.53,0,0,0,1.93-4.18.61.61,0,0,1,.05-.12c.16-.42.31-.85.45-1.28a2.09,2.09,0,0,0,.08-.23c.13-.39.25-.8.37-1.21,0-.1.07-.2.1-.3.11-.39.21-.78.31-1.18l.09-.35c.09-.4.18-.8.26-1.21,0-.12.06-.23.08-.35.1-.52.19-1.05.28-1.59s.17-.92.28-1.36c0-.19.1-.37.16-.55s.14-.48.21-.71.17-.48.27-.72.1-.24.14-.36c.13-.29.26-.58.4-.87,20,4.27,47.46,12.78,71.2,29.52a8.54,8.54,0,0,0,10.64-.53,8.68,8.68,0,0,0,2.06-10.5l-22-43.22c.66-.37,1.32-.74,2-1.12l9.2-5.34,1.23-.72,1.16-.71c.35-.23.71-.44,1.07-.67.9-.56,1.8-1.14,2.69-1.73l.07-.05,27.57,39.86a8.66,8.66,0,0,0,10.22,3.18,8.53,8.53,0,0,0,5.52-9.12c-3.42-28.42,1.92-56.22,7.52-75.67h.09a14.28,14.28,0,0,1,1.44.21l.32.06a13.5,13.5,0,0,1,1.62.46l1.7.54.31.08c.47.14.94.27,1.4.38l.26.06,1.47.33.16,0c.54.11,1.07.2,1.61.28h0a35.16,35.16,0,0,0,6.88.38c-1.59,6.9-3.3,15.5-4.57,25a5.66,5.66,0,0,0,11.22,1.5,262.46,262.46,0,0,1,5.63-29.15c6.06-2.27,11.7-5.69,17.27-9.06l3.13-1.88c32.09-19.15,43.62-59.15,25.71-89.16-13.66-22.89-41.3-34.07-68.62-28.33ZM274.5,332.56c-19.58-12-40.53-19.3-57.89-23.68a17.33,17.33,0,0,1,2.17-.43A139.86,139.86,0,0,0,257,298.13ZM315.68,308l-22-31.86a148,148,0,0,0,26.65-27.93,17.43,17.43,0,0,1,2-2.25c-4.35,17.27-7.89,39.13-6.6,62Zm0,0"/><path d="M316.22,431.07c-8.75,0-13-3.59-15-7l-11.27-18.9c-7.39-12.37-31.64-42.85-97.43-59.4a86.09,86.09,0,0,1-13.34,9.34l-3,1.77L176,357c-1.11.65-2.19,1.28-3.27,1.93C139.9,378.48,98.3,369.41,80,338.69c-13.69-22.93-10.86-52.76,7-74.62A60.66,60.66,0,0,1,82,257a61.69,61.69,0,0,1-8.55-35.59,7.16,7.16,0,0,1,14.29.89,47.41,47.41,0,0,0,6.56,27.36A46.72,46.72,0,0,0,101.6,259a7.17,7.17,0,0,1,.07,10.13c-17.08,17.32-21,42.93-9.41,62.27,14.29,23.94,47.08,30.78,73.1,15.25l2.46-1.45.89-.52c6.7-3.94,12.49-7.35,16.56-11.86.26-.28.5-.57.73-.84l.6-.76c.13-.17.28-.36.41-.55.3-.41.58-.83.84-1.25l.1-.15c.14-.24.27-.45.38-.65l.14-.25c.28-.49.54-1,.81-1.62l.18-.41c.16-.39.32-.79.46-1.19l0-.09c.08-.21.15-.42.22-.63l.2-.63c.11-.41.24-.86.35-1.32l.09-.42c.11-.51.21-1.05.3-1.59l0-.1c.08-.5.18-1,.29-1.49,0-.15.06-.3.1-.45.11-.48.24-1,.38-1.49l.08-.24c.13-.43.27-.85.41-1.26l.2-.54c.15-.4.31-.78.47-1.16s.24-.56.36-.82l.32-.66.42-.81.05-.09c.32-.61.69-1.22,1.12-1.89l.09-.14c.56-.86,1.06-1.56,1.56-2.2l.21-.24a30.5,30.5,0,0,1,19.95-11.11,124.52,124.52,0,0,0,39.13-11.41l.09,0c.92-.46,1.79-.91,2.65-1.36l1.62-.87c.65-.36,1.27-.7,1.87-1.06l.14-.07,9.19-5.34q1.26-.74,2.49-1.5c.8-.49,1.59-1,2.38-1.51l.12-.08c1.55-1,3.17-2.14,4.78-3.32A133.29,133.29,0,0,0,310,240.57a29.86,29.86,0,0,1,23.25-12.42h.21c.46,0,.91,0,1.37,0H335l1.34.09.49,0H337l.84.11.57.08c.44.08.87.15,1.29.24l.49.11,1,.24.47.13c.45.13.92.27,1.38.43s1.15.37,1.72.53l.31.08c.52.14,1,.25,1.57.35a3.68,3.68,0,0,0,.41.08c.51.09,1,.16,1.5.22l.36,0c.57.05,1.08.08,1.57.1h.38c.48,0,1,0,1.57,0h.09a25.65,25.65,0,0,0,5.68-1l.21-.05c5.48-1.64,10.9-4.92,17.17-8.72l.21-.13,3-1.8c26-15.53,35.56-47.64,21.27-71.58-11.54-19.34-35.92-28.09-59.28-21.28a7.15,7.15,0,0,1-8.87-4.86,46.82,46.82,0,0,0-4.74-10.9c-6.9-11.55-18.3-19.51-32.09-22.41a57.08,57.08,0,0,0-41,7.16,58.93,58.93,0,0,0-15.87,13.81,7.15,7.15,0,0,1-9.71,1.39c-17.09-12-40.55-12.37-59.77-.9s-30,32.3-27.58,53a7.16,7.16,0,0,1-5.83,7.89,59.17,59.17,0,0,0-40.86,29.11,7.16,7.16,0,0,1-12.53-6.93A73.58,73.58,0,0,1,126.39,158c-.42-24.29,12.86-47.41,34.9-60.56s48.69-13.88,69.87-2A73.22,73.22,0,0,1,246.64,83.1a71.2,71.2,0,0,1,51.74-8.77c17.56,3.81,32.12,14.1,41,29a60.53,60.53,0,0,1,3.9,7.76c27.71-5.32,55.3,6.35,69,29.28C430.6,171.06,418.84,212,386,231.56l-3.13,1.88c-5.33,3.23-10.84,6.57-16.78,8.89a266.22,266.22,0,0,0-5.4,28.23,7.16,7.16,0,1,1-14.19-1.9c1-7.63,2.42-15.45,4.16-23.28a38.51,38.51,0,0,1-5.22-.42l-.09,0-1.59-.27-.16,0c-.51-.1-1-.21-1.54-.34l-.22,0c-.52-.13-1-.26-1.49-.4l-.34-.1c-.56-.17-1.15-.35-1.74-.55a13,13,0,0,0-1.46-.41l-.33-.07-.12,0c-5.19,18.47-10.47,45.87-7.11,73.83a10,10,0,0,1-6.48,10.7,10.17,10.17,0,0,1-12-3.72l-26.74-38.66-1.57,1-.67.42-.88.53c-.23.15-.46.3-.7.43L279,288l-9.19,5.34-.73.42,21.36,41.93A10.16,10.16,0,0,1,288.05,348a10,10,0,0,1-12.49.62c-23.38-16.48-50.45-24.86-69.45-29l0,.06-.24.65c-.06.21-.13.42-.19.64l0,.12c0,.12-.07.25-.1.38-.1.4-.19.81-.26,1.23-.09.57-.19,1.11-.29,1.65l-.05.25,0,.11c-.09.43-.18.84-.27,1.25l-.1.39c-.1.4-.21.81-.32,1.21l-.1.34c-.12.41-.25.83-.39,1.24l-.08.24c-.15.44-.3.89-.47,1.32l-.05.12c-.35.92-.74,1.82-1.15,2.69,28.53,8,77.71,26.59,100.25,64.36l11.08,18.56c.63.23,3.18.9,9.21-.4,7.07-1.54,15.5-5.09,23.75-10s15.38-10.67,20.09-16.16c4-4.72,4.63-7.29,4.71-7.94L360,363.33c-10.54-17.67-15.75-40.24-15.47-67.11a7.14,7.14,0,0,1,7.15-7.08h.08a7.15,7.15,0,0,1,7.08,7.23c-.24,24.19,4.28,44.25,13.46,59.62l11.27,18.89c2.61,4.36,3.76,11.94-5.53,23.28-5.7,7-14.38,14.1-24.43,20.1s-20.45,10.25-29.29,12A42.64,42.64,0,0,1,316.22,431.07ZM191.65,342.45l.78.19c67.47,16.78,92.45,48.23,100.05,61l11.28,18.89c3,5.07,9.93,6.72,20,4.77,8.5-1.65,18.56-5.77,28.32-11.59S370.2,403,375.69,396.26c6.48-7.91,8.3-14.77,5.28-19.84l-11.28-18.89c-9.46-15.85-14.13-36.44-13.88-61.19a4.15,4.15,0,0,0-4.11-4.2,4.23,4.23,0,0,0-3,1.19,4.1,4.1,0,0,0-1.24,2.92c-.28,26.31,4.79,48.36,15.05,65.54l11.39,19.15c.42,1.22-.24,4.87-5.33,10.82-4.91,5.74-12.31,11.69-20.83,16.78s-17.28,8.77-24.66,10.37c-7.64,1.66-11.16.52-12-.41l-.19-.26-11.28-18.89c-22.47-37.66-72.45-55.94-100.24-63.49l-1.83-.49.91-1.67a34.7,34.7,0,0,0,1.84-4l0-.1c.16-.42.3-.83.44-1.24l.05-.14c.16-.46.27-.85.39-1.24l.08-.29c.11-.37.21-.75.3-1.13l.09-.36c.09-.36.17-.75.25-1.15l.07-.3c.1-.53.19-1.05.28-1.57s.17-.92.31-1.48c0-.17.09-.33.13-.49l0-.12.24-.76c.09-.27.19-.53.29-.79l.16-.4c.14-.32.28-.64.43-.95l.51-1.05,1.15.24c19.33,4.13,47.46,12.64,71.75,29.76a7,7,0,0,0,8.79-.44,7.15,7.15,0,0,0,1.71-8.68l-22.67-44.51,1.26-.7c.66-.36,1.3-.73,1.94-1.1l9.19-5.35,1.23-.71.64-.4.9-.55.64-.4c.91-.57,1.79-1.14,2.67-1.72l1.26-1,.87,1.38,27.57,39.86a7.18,7.18,0,0,0,8.46,2.63,7.06,7.06,0,0,0,4.56-7.54c-3.5-29.1,2.18-57.54,7.56-76.27l.34-1.18,1.44.12c.37,0,.88.11,1.48.23l.15,0,.22,0a14.74,14.74,0,0,1,1.79.5c.53.18,1.08.36,1.62.52l.3.08c.46.13.91.26,1.36.37l.21.05c.51.12,1,.23,1.45.32l-.14,1.5.28-1.47c.52.1,1,.19,1.54.26l.25,0a34.18,34.18,0,0,0,6.36.33l2-.09-.44,1.92c-1.92,8.36-3.45,16.73-4.54,24.88a4.16,4.16,0,0,0,3.57,4.67,4.09,4.09,0,0,0,3.08-.82,4.14,4.14,0,0,0,1.6-2.75,266.49,266.49,0,0,1,5.65-29.32l.2-.76.73-.27c6-2.24,11.58-5.64,17-8.94L384.5,229c31.38-18.73,42.68-57.8,25.19-87.1-13.23-22.18-40.17-33.28-67-27.63l-1.25.26-.46-1.18a58,58,0,0,0-4.16-8.49c-8.45-14.15-22.32-24-39.05-27.58a68.29,68.29,0,0,0-49.57,8.41,70.48,70.48,0,0,0-15.64,12.66l-.82.89-1-.61c-20.4-12-46.4-11.45-67.86,1.36s-34.25,35.45-33.4,59.08l.05,1.21-1.17.3a70.51,70.51,0,0,0-43.85,33.69,4.16,4.16,0,0,0,7.28,4,62.21,62.21,0,0,1,43-30.61,4.16,4.16,0,0,0,3.39-4.59c-2.61-21.91,8.78-43.88,29-56s45-11.68,63,1a4.16,4.16,0,0,0,5.64-.81,61.77,61.77,0,0,1,16.68-14.51A60,60,0,0,1,295.6,85.3c14.63,3.06,26.72,11.52,34,23.81a49.67,49.67,0,0,1,5.05,11.59,4.17,4.17,0,0,0,2,2.48,4.1,4.1,0,0,0,3.16.34c24.67-7.19,50.45,2.11,62.7,22.62,15.14,25.36,5.13,59.32-22.31,75.7-1,.59-2,1.19-3,1.79l-.21.12c-6.45,3.91-12,7.29-17.93,9.05l-.23.06a28.23,28.23,0,0,1-6.2,1.13h-.2c-.66,0-1.28.05-1.81,0h-.38c-.55,0-1.12-.05-1.68-.1l-.51-.05q-.81-.09-1.65-.24l-.52-.1c-.55-.1-1.13-.23-1.71-.38l-.35-.1c-.63-.17-1.26-.36-1.9-.58-.42-.14-.82-.27-1.23-.38l-.37-.1-.94-.24-.42-.09-1.15-.22-.5-.07-.78-.1-.49,0c-.41,0-.82-.07-1.22-.08h-.19c-.38,0-.79,0-1.21,0h-.18a26.87,26.87,0,0,0-20.91,11.2,136.33,136.33,0,0,1-29,29.25c-1.65,1.2-3.32,2.36-4.95,3.42-.89.59-1.7,1.11-2.52,1.61s-1.7,1-2.56,1.54l-9.2,5.34a1.3,1.3,0,0,1-.21.12c-.54.32-1.18.67-1.82,1l-1.69.91c-.88.46-1.76.92-2.69,1.37l0,0a127.58,127.58,0,0,1-40.17,11.74,27.9,27.9,0,0,0-18,10.05l-.17.19c-.44.56-.89,1.18-1.4,2l-.08.12c-.38.6-.71,1.16-1,1.71l-.07.13c-.09.17-.22.42-.34.67l-.29.59-.33.74c-.14.33-.28.67-.41,1l-.19.5c-.12.35-.25.74-.37,1.13l0,.1c-.15.53-.27,1-.38,1.45,0,.14-.06.25-.08.36-.11.48-.2.93-.27,1.39l0,.14c-.1.57-.2,1.14-.33,1.69l-.09.44c-.12.51-.26,1-.39,1.49l-.23.73-.24.68,0,.1c-.18.48-.35.93-.54,1.37l-.18.43c-.18.4-.36.77-.54,1.12l.31.53-.9.57c-.11.19-.22.38-.34.57l-.15.24c-.31.5-.63,1-1,1.43-.14.21-.3.42-.46.62s-.44.57-.67.85-.54.64-.82,1c-4.37,4.84-10.34,8.36-17.26,12.42l-.89.52-2.44,1.45a61.15,61.15,0,0,1-31.3,8.74c-18.62,0-36.24-8.83-45.91-25-12.25-20.51-8.2-47.62,9.85-65.92a4.18,4.18,0,0,0,0-5.88,49.32,49.32,0,0,1-7.81-9.94,50.33,50.33,0,0,1-7-29.09,4.16,4.16,0,1,0-8.31-.51A58.23,58.23,0,0,0,90,263.11l.81,1L90,265c-17.72,21-20.73,49.94-7.5,72.11,17.49,29.3,57.25,37.9,88.63,19.17,1.08-.65,2.16-1.28,3.24-1.91l.21-.13,3-1.76A80.91,80.91,0,0,0,191.05,343Zm121.47,73.86Zm-34.87-79.69-4.54-2.78c-16.5-10.14-35.83-18-57.47-23.51l-5.68-1.43,5.67-1.47a18.77,18.77,0,0,1,2.35-.47,138.69,138.69,0,0,0,37.78-10.21l1.29-.56Zm-54.48-27.38a207.87,207.87,0,0,1,47,19.39l-14.55-28.57A139.59,139.59,0,0,1,223.77,309.24Zm93.71,4-25.87-37.39,1.1-.87a147.45,147.45,0,0,0,26.38-27.65,21.24,21.24,0,0,1,2.14-2.44l3.79-3.67-1.29,5.12c-5.43,21.59-7.64,42.31-6.55,61.58Zm-21.81-36.8L314,302.86A207.89,207.89,0,0,1,319.3,252,149.42,149.42,0,0,1,295.67,276.41Z"/></svg>