<svg id="Layer_1" data-name="Layer 1" xmlns="http://www.w3.org/2000/svg" viewBox="0 0 492.28 497.88"><title>icons</title><path d="M413.13,423.68a6.77,6.77,0,0,0,.24-9.54l-25.48-26.78a232,232,0,0,0,3.3-45.53c-.62-26-6-63.81-28.33-96.22-1.92-2.8-4-5.53-6.08-8.16a67.54,67.54,0,0,0-13.08-73.16l-41.82-44c-5.26-5.51-14.22.63-11,7.52a57.48,57.48,0,0,1-4.71,56.81c-34.66-17.61-69.58-28.65-88.13-33.85,5.69-25.32-1.93-53-13.8-65.5-9.6-10.09-24.83-13.67-41.8-9.84A6.75,6.75,0,0,0,139,86.66c7.74,8.27,5.87,23.13-3.69,35.24L98.47,83.17a6.74,6.74,0,1,0-9.77,9.29l36.85,38.74c-12.58,9-27.51,10.07-35.39,1.93A6.75,6.75,0,0,0,78.82,136a58.27,58.27,0,0,0-2.19,14.14c-.28,11.1,3.12,20.94,9.93,28.1,11.87,12.47,39.19,21.47,64.74,17.05a504.22,504.22,0,0,0,21.51,69.75l-38.16,6.65A6.75,6.75,0,0,0,130.92,283l27.88,29.3a67.2,67.2,0,0,0,49.87,20.94,145.84,145.84,0,0,0,29.66,30.85,150.83,150.83,0,0,0,33.9,19.42,6.74,6.74,0,1,0,5.17-12.45,139.19,139.19,0,0,1-28-15.57,106.3,106.3,0,0,1,104.34-99.29c18.7,28.91,23.4,62.32,24,85.6a222.51,222.51,0,0,1-2.83,41.65,220.59,220.59,0,0,1-40.44.63,6.74,6.74,0,1,0-1,13.44,230.36,230.36,0,0,0,44.68-.86l25.49,26.79a6.76,6.76,0,0,0,9.54.24ZM309.64,148.06l24.29,25.53a54,54,0,0,1,12.65,52.5c-12.26-12.21-28.53-24-48.43-35.06a71.15,71.15,0,0,0,11.49-43ZM168.57,303l-19.2-20.17,28.68-5a318.1,318.1,0,0,0,21.16,41.27A53.67,53.67,0,0,1,168.57,303Zm68.33,42.2c-21.28-20-37.37-50.69-48.5-77.51A483.66,483.66,0,0,1,163,185.85a6.74,6.74,0,0,0-8.42-5.1c-21.24,6-48.28-1.29-58.28-11.8-4.52-4.75-6.64-11.68-6.17-19.72,13.33,5.83,33.52,3,49.89-12.56h0c16.45-15.65,20.16-35.67,15-49.21,8.06-.06,14.88,2.39,19.4,7.15,10,10.51,15.92,37.88,8.88,58.79a6.74,6.74,0,0,0,4.67,8.67c15.91,4.19,57.17,16.17,96.89,37.12l0,0h0c20.95,11.06,43.37,25.63,58.71,43.56l0,0,0,0c.11.13.21.26.32.38a119.84,119.84,0,0,0-107.17,102Zm0,0"/><path d="M284.79,325.35a6.74,6.74,0,0,0,6.58,6.9l21.46.54-.53,21.46a6.74,6.74,0,0,0,13.48.34l.53-21.47,22.24.56a6.75,6.75,0,0,0,.34-13.49l-22.24-.55.55-22.24a6.74,6.74,0,1,0-13.48-.34l-.55,22.25-21.47-.54a6.75,6.75,0,0,0-6.91,6.58Zm0,0"/><path d="M272,236.68a6.74,6.74,0,0,0-8.41-4.48l-43.25,13.23a6.74,6.74,0,0,0,3.94,12.9l43.25-13.23a6.74,6.74,0,0,0,4.47-8.42Zm0,0"/><path d="M239.64,215.79a6.74,6.74,0,1,0-3.94-12.89l-43.25,13.23A6.74,6.74,0,0,0,196.39,229Zm0,0"/></svg>