<svg id="Layer_1" data-name="Layer 1" xmlns="http://www.w3.org/2000/svg" viewBox="0 0 492.28 497.88"><defs><style>.cls-1{fill:#231f20;}</style></defs><title>icons</title><path d="M209.86,293.11c3.42,4.78,4,10.2,1.39,12.11s-7.59-.44-11-5.23-4-10.2-1.38-12.1,7.58.43,11,5.22Zm0,0"/><path class="cls-1" d="M209.06,307.37c-3.21,0-7.12-2.41-10.05-6.5-4-5.55-4.42-11.78-1-14.2s9.14,0,13.11,5.57h0c4,5.54,4.42,11.78,1,14.2A5.17,5.17,0,0,1,209.06,307.37Zm-8-18.64a2.24,2.24,0,0,0-1.35.38c-1.7,1.21-1.41,5.62,1.73,10s7.23,6.09,8.92,4.88,1.41-5.63-1.73-10C206.16,290.52,203.09,288.73,201.07,288.73Z"/><path d="M231.5,238.75c3.43,4.78,4.05,10.2,1.4,12.11s-7.59-.44-11-5.23-4-10.2-1.39-12.1,7.59.43,11,5.22Zm0,0"/><path class="cls-1" d="M230.69,253a8.64,8.64,0,0,1-3.66-.91,18.69,18.69,0,0,1-9.61-13.44c-.33-2.85.45-5.11,2.2-6.36,3.38-2.42,9.14,0,13.1,5.56s4.43,11.78,1.05,14.21A5.2,5.2,0,0,1,230.69,253Zm-8-18.65a2.22,2.22,0,0,0-1.35.38c-.81.58-1.17,1.88-1,3.58a15.76,15.76,0,0,0,7.92,11.07c1.54.73,2.89.82,3.7.24,1.7-1.22,1.41-5.63-1.74-10C227.81,236.16,224.74,234.37,222.72,234.37Z"/><path d="M284.75,273.66c3.42,4.79,4,10.21,1.39,12.11s-7.59-.44-11-5.22-4-10.21-1.39-12.11,7.59.44,11,5.22Zm0,0"/><path class="cls-1" d="M284,287.92c-3.2,0-7.11-2.4-10.05-6.5a17.32,17.32,0,0,1-3.24-7.84c-.33-2.85.45-5.11,2.2-6.36s4.14-1.26,6.74,0a17.38,17.38,0,0,1,6.37,5.6h0a17.32,17.32,0,0,1,3.24,7.84c.33,2.85-.45,5.11-2.2,6.36A5.17,5.17,0,0,1,284,287.92Zm-8-18.64a2.29,2.29,0,0,0-1.35.38c-.81.58-1.17,1.88-1,3.58a14.57,14.57,0,0,0,2.7,6.43c3.15,4.39,7.23,6.09,8.92,4.88.81-.58,1.17-1.89,1-3.58a14.49,14.49,0,0,0-2.7-6.44h0a14.42,14.42,0,0,0-5.22-4.63A5.68,5.68,0,0,0,276,269.28Z"/><path d="M360.58,192.9c3.43,4.78,4.05,10.2,1.39,12.1s-7.58-.43-11-5.22-4-10.2-1.39-12.11,7.59.44,11,5.23Zm0,0"/><path class="cls-1" d="M359.79,207.15c-3.21,0-7.12-2.4-10.05-6.49-4-5.55-4.43-11.78-1-14.2,1.74-1.26,4.14-1.27,6.73,0a18.74,18.74,0,0,1,9.62,13.44c.32,2.85-.46,5.11-2.21,6.36A5.07,5.07,0,0,1,359.79,207.15Zm-8-18.64a2.33,2.33,0,0,0-1.35.38c-1.7,1.22-1.4,5.63,1.74,10s7.22,6.09,8.92,4.87c.81-.58,1.16-1.88,1-3.58a14.48,14.48,0,0,0-2.71-6.43h0a14.61,14.61,0,0,0-5.21-4.64A5.72,5.72,0,0,0,351.79,188.51Z"/><path d="M344.54,258.74c3.42,4.78,4,10.2,1.39,12.11s-7.59-.44-11-5.23-4.05-10.2-1.39-12.1,7.58.43,11,5.22Zm0,0"/><path class="cls-1" d="M343.72,273a8.57,8.57,0,0,1-3.65-.91,18.74,18.74,0,0,1-9.62-13.44c-.33-2.85.46-5.11,2.2-6.36,3.39-2.42,9.14,0,13.11,5.56h0c4,5.55,4.42,11.78,1,14.21A5.2,5.2,0,0,1,343.72,273Zm-8-18.65a2.26,2.26,0,0,0-1.35.38c-.81.58-1.16,1.88-1,3.58a15.83,15.83,0,0,0,7.92,11.07c1.55.73,2.89.82,3.71.24,1.69-1.22,1.4-5.63-1.74-10h0C340.84,256.15,337.77,254.36,335.75,254.36Z"/><path d="M377.88,314.27c3.42,4.78,4,10.2,1.39,12.11s-7.59-.44-11-5.23-4.05-10.2-1.39-12.1,7.58.43,11,5.22Zm0,0"/><path class="cls-1" d="M377.06,328.54a8.57,8.57,0,0,1-3.65-.91A17.31,17.31,0,0,1,367,322c-4-5.55-4.43-11.78-1-14.2s9.13,0,13.1,5.57h0c4,5.54,4.42,11.77,1,14.2A5.23,5.23,0,0,1,377.06,328.54Zm-8-18.66a2.28,2.28,0,0,0-1.36.39c-1.7,1.21-1.4,5.62,1.74,10a14.52,14.52,0,0,0,5.21,4.64c1.55.73,2.89.82,3.71.24,1.69-1.22,1.4-5.63-1.74-10C374.18,311.68,371.11,309.88,369.1,309.88Z"/><path d="M304.84,343.89c3.42,4.79,4,10.21,1.39,12.11s-7.59-.44-11-5.22-4-10.21-1.38-12.11,7.58.44,11,5.22Zm0,0"/><path class="cls-1" d="M304,358.17a8.59,8.59,0,0,1-3.65-.92,17.32,17.32,0,0,1-6.38-5.6c-4-5.54-4.42-11.78-1-14.2s9.14,0,13.11,5.57h0c4,5.54,4.42,11.78,1,14.2A5.19,5.19,0,0,1,304,358.17Zm-8-18.66a2.26,2.26,0,0,0-1.35.38c-1.7,1.21-1.4,5.63,1.73,10a14.63,14.63,0,0,0,5.22,4.64c1.55.73,2.89.82,3.71.24,1.69-1.22,1.4-5.63-1.74-10h0C301.14,341.3,298.07,339.51,296.05,339.51Z"/><path d="M356.13,371.36c3.43,4.78,4.05,10.2,1.39,12.11s-7.59-.44-11-5.23-4.05-10.2-1.39-12.1,7.58.43,11,5.22Zm0,0"/><path class="cls-1" d="M355.33,385.62c-3.2,0-7.11-2.41-10-6.5-4-5.54-4.43-11.78-1-14.2s9.13,0,13.1,5.57h0c4,5.54,4.43,11.78,1,14.2A5.15,5.15,0,0,1,355.33,385.62Zm-8-18.65a2.28,2.28,0,0,0-1.36.39c-1.7,1.21-1.4,5.62,1.74,10s7.22,6.09,8.92,4.88,1.4-5.63-1.74-10h0C352.43,368.77,349.36,367,347.35,367Z"/><path d="M237.42,344.47c3.42,4.79,4,10.21,1.39,12.11s-7.59-.43-11-5.22-4.05-10.21-1.39-12.11,7.58.44,11,5.22Zm0,0"/><path class="cls-1" d="M236.6,358.75a8.79,8.79,0,0,1-3.66-.91,17.4,17.4,0,0,1-6.36-5.61c-4-5.54-4.43-11.78-1.05-14.2s9.14,0,13.11,5.57a17.32,17.32,0,0,1,3.24,7.84c.33,2.85-.45,5.11-2.2,6.36A5.21,5.21,0,0,1,236.6,358.75Zm-8-18.66a2.31,2.31,0,0,0-1.35.38c-1.7,1.22-1.41,5.63,1.74,10a14.32,14.32,0,0,0,5.21,4.63c1.54.74,2.89.82,3.7.24s1.17-1.88,1-3.58a14.45,14.45,0,0,0-2.7-6.43h0C233.72,341.88,230.65,340.09,228.63,340.09Z"/><path d="M297.17,201.32c3.43,4.78,4.05,10.21,1.4,12.11s-7.59-.44-11-5.22-4-10.21-1.39-12.11,7.59.43,11,5.22Zm0,0"/><path class="cls-1" d="M296.36,215.59a8.64,8.64,0,0,1-3.66-.91,18.69,18.69,0,0,1-9.61-13.44c-.33-2.85.45-5.11,2.2-6.36,3.38-2.42,9.14,0,13.1,5.57s4.43,11.78,1.05,14.2A5.2,5.2,0,0,1,296.36,215.59Zm-8-18.65a2.22,2.22,0,0,0-1.35.38c-.81.58-1.17,1.88-1,3.58A15.76,15.76,0,0,0,294,212c1.54.73,2.89.82,3.7.24,1.7-1.22,1.41-5.63-1.74-10h0C293.47,198.73,290.41,196.94,288.39,196.94Z"/><path d="M401.14,312.33a4.91,4.91,0,0,0-5.28,4.54A226.9,226.9,0,0,1,383,378a41.2,41.2,0,0,1-38.58,26.94c-1.11,0-2.24,0-3.35-.14-69.17-5.62-132.82-50.05-133.45-50.5l-.12-.09a91.5,91.5,0,0,1-35.91-46.53,4.92,4.92,0,1,0-9.32,3.17A101.37,101.37,0,0,0,202,362.38a323.41,323.41,0,0,0,41.81,23.89c23.24,11.24,58.83,25.29,96.47,28.35,1.38.11,2.77.17,4.15.17a51.07,51.07,0,0,0,47.83-33.41,236.94,236.94,0,0,0,13.46-63.77,4.93,4.93,0,0,0-4.54-5.28Zm0,0"/><path class="cls-1" d="M344.39,416.29c-1.41,0-2.85-.06-4.27-.17-37.87-3.08-73.65-17.2-97-28.5-24.46-11.84-40.3-22.8-42-24a102.85,102.85,0,0,1-40.28-52.28A6.42,6.42,0,1,1,173,307.2,90,90,0,0,0,208.3,353l.2.14c1.83,1.29,64.08,44.63,132.66,50.21,1,.09,2.13.13,3.23.13a39.68,39.68,0,0,0,37.17-26,224.94,224.94,0,0,0,12.8-60.72,6.44,6.44,0,0,1,6.89-5.93h0a6.46,6.46,0,0,1,5.93,6.89,238.58,238.58,0,0,1-13.55,64.18A52.59,52.59,0,0,1,344.39,416.29ZM166.9,305.84a3.47,3.47,0,0,0-1.1.18,3.43,3.43,0,0,0-2.14,4.35,99.9,99.9,0,0,0,39.13,50.76,321.16,321.16,0,0,0,41.64,23.79c23.11,11.19,58.52,25.16,95.93,28.21a49.54,49.54,0,0,0,50.45-32.27,235.19,235.19,0,0,0,13.38-63.36,3.46,3.46,0,0,0-3.17-3.68,3.42,3.42,0,0,0-3.66,3.17,228.56,228.56,0,0,1-13,61.52,42.68,42.68,0,0,1-40,27.93c-1.18,0-2.35-.05-3.48-.14-70.17-5.71-133.56-50.33-134.19-50.78l-.09-.07a93.09,93.09,0,0,1-36.49-47.29,3.38,3.38,0,0,0-1.72-2A3.52,3.52,0,0,0,166.9,305.84Zm39.73,49.61.1.07Z"/><path d="M396.48,223.26c-10.87-41.64-47.58-72.19-88.16-74a70.83,70.83,0,0,0,7.38-23.52,4.93,4.93,0,0,0-9.76-1.35,58.24,58.24,0,0,1-9.24,25.18,77,77,0,0,0-28.06,8.33q.54-2.67.85-5.4a4.93,4.93,0,1,0-9.79-1.1,51.15,51.15,0,0,1-4,14.83L229,185.42c-1.61-2.24-2.89-3.79-3.35-4.37-5.29-8.65-10.39-20.63-10.39-34.7,0-16.23,6.71-32.4,19.95-48.08a4.15,4.15,0,0,1,3.2-1.48,4.23,4.23,0,0,1,3.37,1.66,102.56,102.56,0,0,1,11,17.85,75.66,75.66,0,0,1,5.95,17.12,4.93,4.93,0,0,0,9.64-2,83,83,0,0,0-4.46-14.29c6.71-10.24,17.55-20.09,34.63-27.83a4.13,4.13,0,0,1,1.71-.38,4.26,4.26,0,0,1,4.15,3.36,111.08,111.08,0,0,1,2,13.59,4.92,4.92,0,1,0,9.81-.78A117.6,117.6,0,0,0,314,90.2,14.18,14.18,0,0,0,300.23,79a14,14,0,0,0-5.78,1.25C278,87.75,266.65,97,259,106.86a116.87,116.87,0,0,0-9.41-14.39,14.08,14.08,0,0,0-21.92-.56c-14.79,17.5-22.28,35.82-22.28,54.44a69,69,0,0,0,.41,7.42l-21.69-30.3a4.92,4.92,0,1,0-8,5.73l21.27,29.72c-15.54-7-37-9.81-64.83,1.08A14.06,14.06,0,0,0,126,180.93a116.15,116.15,0,0,0,10.6,13.55c-12.93,4.47-25.19,12.83-36.62,25A14.08,14.08,0,0,0,103,241.2a116.81,116.81,0,0,0,13.4,6.86,4.92,4.92,0,0,0,3.9-9,108.38,108.38,0,0,1-12.26-6.29,4.2,4.2,0,0,1-2.07-3.66,4.06,4.06,0,0,1,1.13-2.84c11.72-12.49,24.29-20.47,37.48-23.86,10.7,9.35,23.18,15.94,37.11,17.71A76.9,76.9,0,0,0,164.62,244a58.25,58.25,0,0,1-26.53.59,4.93,4.93,0,0,0-1.88,9.68,75.59,75.59,0,0,0,14.31,1.42h0a65.68,65.68,0,0,0,10-.75,87.62,87.62,0,0,0-3.5,24.76,96.13,96.13,0,0,0,.64,11,4.93,4.93,0,0,0,9.79-1.14,85.33,85.33,0,0,1-.58-9.81,75.58,75.58,0,0,1,6-29.93,68,68,0,0,1,24.25-29.46l.33-.23h.06l67.71-48.46c42.84-30.68,107-2.14,121.75,54.15a286.65,286.65,0,0,1,9.59,71.83,4.93,4.93,0,0,0,9.85,0,295.86,295.86,0,0,0-9.92-74.29ZM193.85,210.54c-12.06,1-24-2.11-35.63-10a80.4,80.4,0,0,1-10.69-8.84,104.42,104.42,0,0,1-13.37-16.21,4.17,4.17,0,0,1-.51-3.63,4.09,4.09,0,0,1,2.46-2.65q17-6.66,32-6.65c19.05,0,35.3,8.18,47.84,22.42l3.75,5.23c.29.42.58.84.87,1.24Zm0,0"/><path class="cls-1" d="M401.48,304a6.43,6.43,0,0,1-6.43-6.41,284.69,284.69,0,0,0-9.55-71.45,88.11,88.11,0,0,0-55-60.91c-22.73-8.22-46.22-5.45-64.45,7.6l-46.11,33-21.5,15.38-.33.38h-.2l-.62.44a66.23,66.23,0,0,0-23.08,28.34,74.73,74.73,0,0,0-5.86,29.34,82.49,82.49,0,0,0,.57,9.63,6.43,6.43,0,1,1-12.77,1.49,96.43,96.43,0,0,1-.65-11.12,89.74,89.74,0,0,1,2.94-23,73.74,73.74,0,0,1-22.54-1,6.43,6.43,0,1,1,2.44-12.62,57,57,0,0,0,25.18-.39,78.27,78.27,0,0,1,15-21.63C166.47,219,155,213.23,144.24,204c-12.63,3.43-24.74,11.24-36,23.23a2.61,2.61,0,0,0-.72,1.82,2.71,2.71,0,0,0,1.34,2.37,104.52,104.52,0,0,0,12.09,6.2,6.43,6.43,0,0,1-5.1,11.8,119.1,119.1,0,0,1-13.57-7,15.57,15.57,0,0,1-3.4-24c10.93-11.64,22.74-19.92,35.12-24.62a116.12,116.12,0,0,1-9.26-12.07A15.57,15.57,0,0,1,132,158.6c22.26-8.71,42.8-9.72,61.14-3l-18.25-25.5a6.43,6.43,0,0,1,10.45-7.48l18.6,26c0-.75,0-1.49,0-2.22,0-19,7.61-37.63,22.63-55.4a15.57,15.57,0,0,1,24.26.61,118.16,118.16,0,0,1,8.44,12.63c8.45-10.18,20.08-18.68,34.63-25.27a15.43,15.43,0,0,1,6.4-1.39,15.66,15.66,0,0,1,15.25,12.36,118.57,118.57,0,0,1,2.2,15,6.42,6.42,0,0,1-5.89,6.92,6.44,6.44,0,0,1-6.92-5.9,106.67,106.67,0,0,0-2-13.4,2.77,2.77,0,0,0-2.68-2.17,2.62,2.62,0,0,0-1.09.24c-14.92,6.77-26.21,15.73-33.56,26.64a85.44,85.44,0,0,1,4.24,13.81,6.43,6.43,0,0,1-12.58,2.67A73.78,73.78,0,0,0,251.41,117a100.32,100.32,0,0,0-10.86-17.58,2.71,2.71,0,0,0-2.18-1.08,2.6,2.6,0,0,0-2.05.95c-13,15.4-19.6,31.25-19.6,47.11,0,11.44,3.4,22.83,10.12,33.84l.21.26c.47.59,1.26,1.57,2.24,2.89l25.21-18.05a50.23,50.23,0,0,0,3.71-14,6.45,6.45,0,0,1,7.1-5.67,6.42,6.42,0,0,1,5.67,7.11c-.1.85-.21,1.71-.34,2.56a78.12,78.12,0,0,1,25.2-7.08,57.18,57.18,0,0,0,8.61-24A6.43,6.43,0,1,1,317.18,126a73.15,73.15,0,0,1-6.48,21.94c19.2,1.36,38.23,9.21,53.8,22.25a103.32,103.32,0,0,1,33.43,52.7h0a297.38,297.38,0,0,1,10,74.67,6.4,6.4,0,0,1-6.42,6.43ZM304.7,157.55a78.86,78.86,0,0,1,26.85,4.84,91.13,91.13,0,0,1,56.86,63,287.74,287.74,0,0,1,9.64,72.19,3.44,3.44,0,0,0,5.86,2.42,3.39,3.39,0,0,0,1-2.42A294.63,294.63,0,0,0,395,223.64h0c-10.74-41.13-46.42-71.08-86.77-72.84l-2.37-.1,1.11-2.1a69.18,69.18,0,0,0,7.21-23,3.38,3.38,0,0,0-.66-2.53,3.41,3.41,0,0,0-4.8-.66,3.36,3.36,0,0,0-1.32,2.26,60,60,0,0,1-9.49,25.81l-.39.58-.7.07a75.11,75.11,0,0,0-27.52,8.17l-2.79,1.46.63-3.09c.35-1.74.63-3.51.82-5.27a3.4,3.4,0,0,0-3-3.78,3.43,3.43,0,0,0-3.79,3,53.06,53.06,0,0,1-4.1,15.26l-.17.38-28.31,20.26-.87-1.22c-1.34-1.85-2.44-3.22-3-4l-.38-.5c-7-11.51-10.61-23.45-10.61-35.48,0-16.59,6.83-33.09,20.3-49a5.62,5.62,0,0,1,4.35-2,5.68,5.68,0,0,1,4.56,2.25,104.22,104.22,0,0,1,11.19,18.11,78,78,0,0,1,6.06,17.46,3.42,3.42,0,1,0,6.7-1.42,81,81,0,0,0-4.38-14l-.3-.73.44-.66c7.65-11.69,19.52-21.24,35.26-28.38a5.6,5.6,0,0,1,2.33-.51,5.78,5.78,0,0,1,5.62,4.55,110.59,110.59,0,0,1,2,13.78,3.43,3.43,0,1,0,6.83-.54,116.18,116.18,0,0,0-2.14-14.66,12.66,12.66,0,0,0-12.32-10,12.45,12.45,0,0,0-5.16,1.12c-14.92,6.76-26.67,15.56-34.91,26.13l-1.4,1.8-1.1-2a114,114,0,0,0-9.28-14.2,12.58,12.58,0,0,0-19.59-.5c-14.55,17.22-21.92,35.21-21.92,53.47a69.39,69.39,0,0,0,.4,7.26l.63,5.69-25-35a3.43,3.43,0,0,0-5.57,4l24.51,34.23-5.07-2.28c-18.79-8.44-40.21-8.07-63.68,1.12a12.58,12.58,0,0,0-5.84,18.69,114.85,114.85,0,0,0,10.47,13.38l1.54,1.68-2.16.75c-12.68,4.38-24.8,12.66-36,24.61a12.58,12.58,0,0,0,2.76,19.4A114.51,114.51,0,0,0,117,246.68a3.43,3.43,0,1,0,2.72-6.29A108.11,108.11,0,0,1,107.31,234a5.7,5.7,0,0,1-2.8-5,5.55,5.55,0,0,1,1.54-3.87c11.88-12.66,24.73-20.83,38.2-24.28l.76-.2.6.52c11.3,9.88,23.52,15.72,36.31,17.36l3.15.4-2.31,2.18A75.06,75.06,0,0,0,166,244.64l-.29.63-.68.19a59.82,59.82,0,0,1-27.21.62,3.42,3.42,0,0,0-4,2.71,3.39,3.39,0,0,0,.52,2.57,3.42,3.42,0,0,0,2.19,1.45,70.31,70.31,0,0,0,23.81.66l2.32-.35-.66,2.26a86.18,86.18,0,0,0-3.44,24.33,95,95,0,0,0,.63,10.77,3.44,3.44,0,0,0,3.8,3,3.43,3.43,0,0,0,3-3.8,86.43,86.43,0,0,1-.59-10,78,78,0,0,1,6.1-30.54,69.28,69.28,0,0,1,24.13-29.61l.44-.31,0-.05.61-.43,21.51-15.39,46.11-33A68.84,68.84,0,0,1,304.7,157.55ZM189.48,212.23c-11.14,0-21.92-3.52-32.1-10.49a81.66,81.66,0,0,1-10.9-9,106.55,106.55,0,0,1-13.57-16.44,5.73,5.73,0,0,1-.69-4.93,5.57,5.57,0,0,1,3.34-3.59C147,163.29,158,161,168.13,161c18.82,0,35.75,7.93,49,22.93l.09.12,3.75,5.23c.29.43.58.84.86,1.23l.89,1.22L194.39,212l-.41,0C192.47,212.16,191,212.23,189.48,212.23ZM168.13,164c-9.79,0-20.38,2.2-31.47,6.54a2.6,2.6,0,0,0-1.58,1.7,2.7,2.7,0,0,0,.33,2.36,103.71,103.71,0,0,0,13.17,16,79.83,79.83,0,0,0,10.49,8.68c10.84,7.41,22.36,10.71,34.25,9.81l25.18-18,0,0-3.68-5.15C202.17,171.58,186,164,168.13,164Z"/><path d="M197.44,220.09h0Zm0,0"/><polygon class="cls-1" points="198.12 221.43 196.77 218.75 196.78 218.75 198.12 221.43"/></svg>