
<!-- Generator: Adobe Illustrator 24.0.2, SVG Export Plug-In . SVG Version: 6.00 Build 0)  -->
<svg version="1.1" id="icon-buy" class="icon-menu" xmlns="http://www.w3.org/2000/svg" xmlns:xlink="http://www.w3.org/1999/xlink" x="0px" y="0px"
	 viewBox="0 0 612 792" style="enable-background:new 0 0 612 792;" xml:space="preserve">
		<path d="M476.44,279.8c-0.44-5.18-4.8-9.14-9.99-9.09h-75.93v-28.78c0-46.91-38.03-84.93-84.93-84.93
			c-46.91,0-84.93,38.02-84.93,84.93v28.78h-75.94c-5.17,0.02-9.49,3.95-9.99,9.09l-26.18,300.95c-1.19,13.95,3.52,27.77,13,38.09
			c9.48,10.31,22.84,16.18,36.85,16.17h294.45c14.01,0.01,27.38-5.85,36.85-16.17c9.48-10.32,14.2-24.13,13.01-38.09L476.44,279.8z
			 M240.64,241.93c0-35.87,29.08-64.95,64.95-64.95c35.87,0,64.94,29.07,64.94,64.95v28.78H240.64V241.93z M474.94,605.32
			c-5.65,6.22-13.68,9.75-22.09,9.69H158.3c-8.4,0-16.42-3.52-22.1-9.71c-5.68-6.2-8.5-14.49-7.77-22.86l25.37-291.76h66.85v62.35
			c-16.07,4.95-26.1,20.9-23.6,37.52c2.5,16.62,16.79,28.92,33.59,28.92c16.81,0,31.09-12.3,33.59-28.92
			c2.5-16.63-7.54-32.58-23.6-37.52v-62.45h129.89v62.45c-16.07,4.95-26.1,20.9-23.6,37.52c2.5,16.62,16.78,28.92,33.59,28.92
			c16.81,0,31.09-12.3,33.59-28.92c2.5-16.63-7.54-32.58-23.6-37.52v-62.45h66.74l25.38,291.76
			C483.45,590.75,480.65,599.1,474.94,605.32L474.94,605.32z M229.14,371.62c1,0.13,2,0.13,3,0c7.39,0.8,12.87,7.23,12.47,14.66
			c-0.4,7.42-6.54,13.24-13.97,13.24c-7.43,0-13.57-5.82-13.97-13.24C216.28,378.86,221.75,372.42,229.14,371.62L229.14,371.62z
			 M379.02,371.62c1,0.13,2,0.13,3,0c7.39,0.8,12.87,7.23,12.47,14.66c-0.4,7.42-6.54,13.24-13.97,13.24
			c-7.44,0-13.57-5.82-13.97-13.24C366.15,378.86,371.63,372.42,379.02,371.62L379.02,371.62z M379.02,371.62"/>
</svg>
