<svg id="Layer_1" data-name="Layer 1" xmlns="http://www.w3.org/2000/svg" viewBox="0 0 492.28 497.88"><defs><style>.cls-1{fill:none;}.cls-2{fill:#fdfefe;}</style></defs><title>icons</title><path class="cls-1" d="M235.5,286.8A28.18,28.18,0,1,0,263.69,315,28.18,28.18,0,0,0,235.5,286.8Z"/><path d="M281,315a45.47,45.47,0,1,0-45.47,45.47A45.52,45.52,0,0,0,281,315ZM235.5,344.66A29.68,29.68,0,1,1,265.19,315,29.71,29.71,0,0,1,235.5,344.66Z"/><path class="cls-2" d="M235.5,285.3A29.68,29.68,0,1,0,265.19,315,29.71,29.71,0,0,0,235.5,285.3Zm0,57.86A28.18,28.18,0,1,1,263.69,315,28.18,28.18,0,0,1,235.5,343.16Z"/><path d="M226.81,386.52v11.31l-1,1h11a6.69,6.69,0,0,0,0-13.38h-98a6,6,0,0,0-.85.07h87.85Z"/><path class="cls-1" d="M406,398.54h13.83V386.72A18,18,0,0,1,406,398.54Z"/><path class="cls-1" d="M418.4,233.74a6.67,6.67,0,0,1-5.48,1.42A32.93,32.93,0,1,0,409,300.68a28.22,28.22,0,0,0,3.1-.24c2.27-.28,4.07-.5,6.26,1.32a6.8,6.8,0,0,1,1.41,1.62V232.12A6.8,6.8,0,0,1,418.4,233.74Z"/><path class="cls-1" d="M80.47,386.72v11.82H94.3A18,18,0,0,1,80.47,386.72Z"/><path class="cls-1" d="M312.35,223.51a16,16,0,1,0,16,16A16,16,0,0,0,312.35,223.51Z"/><path class="cls-1" d="M104.94,121.13c26-25,66.06-38.63,119.2-40.72H80.47V160.7C82.49,153.08,88.44,137,104.94,121.13Z"/><path class="cls-1" d="M417.35,177.08h0a6.66,6.66,0,0,1,2.46,2.34v-99H240.38c3.45,1.42,15.94,8.28,70.44,38.21C336.12,132.51,370.53,151.4,417.35,177.08Z"/><path class="cls-1" d="M128.39,189.57a32.92,32.92,0,1,0,62.52,0Z"/><path class="cls-1" d="M237.13,93.43c-53.54.25-93.87,12-119.88,34.94-19.83,17.5-24,35.7-24.47,38.15v9.74H388.19Z"/><path d="M81.47,380.86a16,16,0,0,0,16,16h36.73a6.82,6.82,0,0,1,0-9.31H97.44a6.67,6.67,0,0,1-6.66-6.66V250.22H81.47Z"/><path d="M90.78,188.57l1-1h24.11l1,1.25a44.21,44.21,0,1,0,85.59,0l1-1.25H408.49l1,1v33.94l-1,1a44.36,44.36,0,0,0-42,58.38,43.09,43.09,0,0,0,42,30.1l1,1v67.87a6.66,6.66,0,0,1-6.65,6.66H373.49a6.8,6.8,0,0,1-.05,9.31h29.4a16,16,0,0,0,16-16v-74a4.69,4.69,0,0,0-1.68-3.59c-1.53-1.27-2.67-1.13-4.75-.88a31,31,0,0,1-3.31.26,34.94,34.94,0,1,1,4.18-69.5,4.65,4.65,0,0,0,5.56-4.57V182.92a4.67,4.67,0,0,0-2.42-4.09c-46.82-25.67-81.23-44.56-106.53-58.46-59.42-32.62-69.23-38-70.55-38.31a1.88,1.88,0,0,1-.48.06c-59.13,0-104.94,14-132.51,40.45C85.41,142.65,81.85,163,81.52,165.29l0,0c0,.36,0,2.6,0,4.76v31.47h9.31Zm97.38,31.48a34.92,34.92,0,0,1-61.43-31.81l.94-.67h64l.94.67A35,35,0,0,1,188.16,220.05ZM90.8,166.24c.4-2.12,4.52-21.19,25.13-39.37,26.43-23.3,67.29-35.23,121.45-35.44l.48.12,154.71,84.84-.48,1.87H91.78l-1-1Z"/><path d="M134.17,396.83h90.64v-9.31H134.12a6.82,6.82,0,0,0,0,9.31Z"/><path d="M136.91,398.54H94.3a18.06,18.06,0,0,0,3.14.29h41.37A6.57,6.57,0,0,1,136.91,398.54Z"/><path d="M91.78,380.86a5.65,5.65,0,0,0,5.66,5.66H135.3a6.18,6.18,0,0,1,2.66-1H97.44a4.66,4.66,0,0,1-4.66-4.66V250.22h-1Z"/><path d="M368.81,398.83h34a18.06,18.06,0,0,0,3.14-.29H370.71A6.67,6.67,0,0,1,368.81,398.83Z"/><path d="M419.81,380.86v5.86a18,18,0,0,0,1-5.86v-74a6.7,6.7,0,0,0-1-3.51v77.48Z"/><path d="M80.47,170.08V160.7a41,41,0,0,0-.93,4.31h0c-.1.7-.1,2.11-.11,5.06v31.47h1Z"/><path d="M238.83,80.12q-7.52,0-14.69.29h16.24C239.35,80,239.12,80,238.83,80.12Z"/><path d="M419.81,228.61v3.51a6.7,6.7,0,0,0,1-3.51V182.92a6.73,6.73,0,0,0-1-3.5v49.19Z"/><path d="M402.84,386.52a5.65,5.65,0,0,0,5.65-5.66V313a44.37,44.37,0,0,1-43-30.79,45.37,45.37,0,0,1,43-59.69V188.57H203.41a45.21,45.21,0,1,1-87.52,0H91.78v13h1v-12h21.83a46.21,46.21,0,1,0,90.08,0h202.8v32a46.37,46.37,0,0,0-42.93,61A45.11,45.11,0,0,0,407.49,314v66.86a4.66,4.66,0,0,1-4.65,4.66H369.65a6.18,6.18,0,0,1,2.66,1Z"/><path d="M80.47,370.33V250.22h-1V380.86a18.07,18.07,0,0,0,1,5.86V370.33Z"/><path d="M225.81,386.52v12h-88.9a6.57,6.57,0,0,0,1.9.29h87l1-1V386.52l-1-1H138a6.18,6.18,0,0,0-2.66,1Z"/><path d="M402.84,397.83H372.21a6.87,6.87,0,0,1-1.5.71H406a18,18,0,0,0,13.83-11.82v-5.86A17,17,0,0,1,402.84,397.83Z"/><path d="M418.4,301.76c-2.19-1.82-4-1.6-6.26-1.32a28.22,28.22,0,0,1-3.1.24,32.93,32.93,0,1,1,3.88-65.52,6.67,6.67,0,0,0,5.48-1.42,6.8,6.8,0,0,0,1.41-1.62v-3.51a5.66,5.66,0,0,1-6.71,5.56,33.94,33.94,0,1,0-4,67.51c4.18-.05,6.05-1.34,8.71.85a5.68,5.68,0,0,1,2,4.36v-3.51A6.8,6.8,0,0,0,418.4,301.76Z"/><path d="M135.4,397.83h-38a17,17,0,0,1-17-17v5.86A18,18,0,0,0,94.3,398.54h42.61A6.73,6.73,0,0,1,135.4,397.83Z"/><path d="M136.91,398.54h88.9v-.71H135.4A6.73,6.73,0,0,0,136.91,398.54Z"/><path d="M80.53,165.15c.51-3.43,13.67-84,158.3-84,2.15,0-9.62-6.07,178,96.84a5.65,5.65,0,0,1,2.94,5v-3.5a6.66,6.66,0,0,0-2.46-2.34h0c-46.82-25.68-81.23-44.57-106.53-58.46-54.5-29.93-67-36.79-70.44-38.21H224.14C171,82.5,130.93,96.17,104.94,121.13c-16.5,15.84-22.45,32-24.47,39.57v9.38C80.48,164.1,80.5,165.36,80.53,165.15Z"/><path d="M127.67,188.57a33.92,33.92,0,0,0,59.68,30.9h0a34,34,0,0,0,4.28-30.9Zm58.86,30.32a32.92,32.92,0,0,1-58.14-29.32h62.52A33,33,0,0,1,186.53,218.89Z"/><path d="M237.38,92.43c-129,.51-144.58,68.67-145.6,74v10.84H392.09ZM92.78,166.52c.49-2.45,4.64-20.65,24.47-38.15,26-22.94,66.34-34.69,119.88-34.94l151.06,82.83H92.78Z"/><path d="M90.78,380.86a6.67,6.67,0,0,0,6.66,6.66h36.68a6.25,6.25,0,0,1,1.18-1H97.44a5.65,5.65,0,0,1-5.66-5.66V250.22h-1Z"/><path d="M191.63,187.57h-64l-.94.67a34.92,34.92,0,1,0,65.84,0Zm-4.28,31.9h0a33.92,33.92,0,0,1-59.68-30.9h64A34,34,0,0,1,187.35,219.47Z"/><path d="M392.09,178.26l.48-1.87L237.86,91.55l-.48-.12c-54.16.21-95,12.14-121.45,35.44C95.32,145.05,91.2,164.12,90.8,166.24l0,11,1,1ZM91.78,166.42c1-5.32,16.62-73.48,145.6-74l154.71,84.83H91.78Z"/><path d="M134.17,396.83H97.44a16,16,0,0,1-16-16V250.22h-1V380.86a17,17,0,0,0,17,17h38A7,7,0,0,1,134.17,396.83Z"/><path d="M373.49,387.52h29.35a6.66,6.66,0,0,0,6.65-6.66V313l-1-1a43.09,43.09,0,0,1-42-30.1,44.36,44.36,0,0,1,42-58.38l1-1V188.57l-1-1H203.41l-1,1.25a44.21,44.21,0,1,1-85.59,0l-1-1.25H91.78l-1,1v13h1v-13h24.11a45.21,45.21,0,1,0,87.52,0H408.49v33.94a45.37,45.37,0,0,0-43,59.69,44.37,44.37,0,0,0,43,30.79v67.87a5.65,5.65,0,0,1-5.65,5.66H372.31A6,6,0,0,1,373.49,387.52Z"/><path d="M416.87,178C229.21,75.05,241,81.12,238.83,81.12c-144.63,0-157.79,80.6-158.3,84,0,.21,0-1.05-.06,4.93v31.47h1V170.08c0-2.16,0-4.4,0-4.76l0,0c.33-2.25,3.89-22.64,24.8-42.72,27.57-26.46,73.38-40.45,132.51-40.45a1.88,1.88,0,0,0,.48-.06c1.32.3,11.13,5.69,70.55,38.31,25.3,13.9,59.71,32.79,106.53,58.46a4.67,4.67,0,0,1,2.42,4.09v45.69a4.65,4.65,0,0,1-5.56,4.57,34.94,34.94,0,1,0-4.18,69.5,31,31,0,0,0,3.31-.26c2.08-.25,3.22-.39,4.75.88a4.69,4.69,0,0,1,1.68,3.59v74a16,16,0,0,1-16,16h-29.4a7,7,0,0,1-1.23,1h30.63a17,17,0,0,0,17-17v-74a5.68,5.68,0,0,0-2-4.36c-2.66-2.19-4.53-.9-8.71-.85a33.94,33.94,0,1,1,4-67.51,5.66,5.66,0,0,0,6.71-5.56V182.92A5.65,5.65,0,0,0,416.87,178Z"/><path d="M134.12,387.52h90.69v9.31H134.17a7,7,0,0,0,1.23,1h90.41V386.52H135.3A6.25,6.25,0,0,0,134.12,387.52Z"/><path d="M339.63,239.47a27.28,27.28,0,1,0-27.28,27.28A27.31,27.31,0,0,0,339.63,239.47Zm-45.25,0a18,18,0,1,1,18,18A18,18,0,0,1,294.38,239.47Z"/><path d="M312.35,268.75a29.28,29.28,0,1,0-29.28-29.28,29.31,29.31,0,0,0,29.28,29.28Zm-28.28-29.28a28.28,28.28,0,1,1,28.28,28.28A28.28,28.28,0,0,1,284.07,239.47Z"/><path d="M312.35,222.51a17,17,0,1,0,17,17A17,17,0,0,0,312.35,222.51Zm0,32.93a16,16,0,1,1,16-16A16,16,0,0,1,312.35,255.44Z"/><path d="M340.63,239.47a28.28,28.28,0,1,0-28.28,28.28A28.28,28.28,0,0,0,340.63,239.47Zm-55.56,0a27.28,27.28,0,1,1,27.28,27.28A27.31,27.31,0,0,1,285.07,239.47Z"/><path d="M330.32,239.47a18,18,0,1,0-18,18A18,18,0,0,0,330.32,239.47Zm-18,17a17,17,0,1,1,17-17A17,17,0,0,1,312.35,256.44Z"/><path d="M288.14,386.52l1-1h80.51a5.83,5.83,0,0,0-.84-.07h-98a6.69,6.69,0,0,0,0,13.38h18.33l-1-1Z"/><path d="M373.49,387.52H290.14v9.31h83.3a6.8,6.8,0,0,0,.05-9.31Z"/><path d="M370.71,398.54H289.14v-12h83.17a6.18,6.18,0,0,0-2.66-1H289.14l-1,1v11.31l1,1h79.67A6.67,6.67,0,0,0,370.71,398.54Z"/><path d="M289.14,398.54h81.57a6.87,6.87,0,0,0,1.5-.71H289.14Z"/><path d="M373.44,396.83h-83.3v-9.31h83.35a6,6,0,0,0-1.18-1H289.14v11.31h83.07A7,7,0,0,0,373.44,396.83Z"/><path d="M80,203.39a6.69,6.69,0,0,0,13.37,0V185.06l-1,1H81l-1-1"/><path d="M93.35,234.56a6.69,6.69,0,0,0-13.37,0v18.33l1-1H92.29l1,1"/></svg>