
<!-- Generator: Adobe Illustrator 24.0.2, SVG Export Plug-In . SVG Version: 6.00 Build 0)  -->
<svg version="1.1"  id="icon-fridge" class="icon-menu"  xmlns="http://www.w3.org/2000/svg" xmlns:xlink="http://www.w3.org/1999/xlink" x="0px" y="0px"
	 viewBox="0 0 35 35" style="enable-background:new 0 0 35 35;" xml:space="preserve">
<path d="M27.11,33h0.33c0.99,0,1.79-0.8,1.79-1.79l0,0V5.64c0-0.26-0.21,0.26-0.48,0.26s-0.48,0.38-0.48,0.64v6.74H14.63
	c-0.26,0-0.48,0.21-0.48,0.48s0.21,0.48,0.48,0.48l0,0h13.66v16.98c0,0.46-0.38,0.84-0.84,0.84H8.26c-0.46,0-0.84-0.38-0.84-0.84
	V14.23h8.67c0.26,0,0.19-0.21,0.19-0.48c0-0.26-0.45-0.48-0.19-0.48c3.56,0-0.42,0-0.42,0H7.42V4.04c0-0.46,0.37-0.83,0.83-0.83
	h0.01h19.19c0.46-0.01,0.83,0.36,0.84,0.82v0.01v3.59c0,0.26,0.21-0.03,0.48-0.03l0,0l0,0c0.26,0,0.48-0.21,0.48-0.48l0,0V4.04
	c0-0.99-0.8-1.79-1.79-1.79l0,0H8.26c-0.99,0-1.79,0.8-1.79,1.79l0,0v27.17c0,0.99,0.8,1.79,1.79,1.79l0,0h0.33 M8.59,33h18.86
	 M9.55,33h1.7 M24.45,33h1.7"/>
<path d="M10.09,6.82v2.81c-0.06,0.47,0.5,0.89,1.25,0.92c0.75,0.03,1.41-0.32,1.47-0.78c0.01-0.04,0.01-0.09,0-0.14V6.82
	c0.06-0.47-0.5-0.89-1.25-0.92c-0.75-0.03-1.41,0.32-1.47,0.78C10.08,6.73,10.08,6.78,10.09,6.82z M11.85,6.82v2.81
	c0.03,0.14-0.12,0.26-0.34,0.29c-0.22,0.02-0.43-0.08-0.45-0.21c-0.01-0.03-0.01-0.05,0-0.08V6.82c-0.03-0.14,0.12-0.26,0.34-0.29
	c0.22-0.02,0.43,0.08,0.45,0.21C11.86,6.77,11.86,6.8,11.85,6.82z"/>
</svg>
