<?xml version="1.0" encoding="utf-8"?>
<!-- Generator: Adobe Illustrator 24.0.2, SVG Export Plug-In . SVG Version: 6.00 Build 0)  -->
<svg version="1.1" id="Livello_1" xmlns="http://www.w3.org/2000/svg" xmlns:xlink="http://www.w3.org/1999/xlink" x="0px" y="0px"
	 viewBox="0 0 1366 318" style="enable-background:new 0 0 1366 318;" xml:space="preserve">
<g>
	<path d="M121.58,76.81c4.94,0,8.4,3,10.39,9c3.8,12.14,7.26,29.81,10.39,53c0.14,0,0.37,1.15,0.69,3.46h0.21
		c7-15.06,13.83-22.59,20.51-22.59c8.31,0,14.38,7.14,18.22,21.41h0.21c3.37-14.28,8.66-31.18,15.87-50.71
		c1.17-2.98,3.02-5.06,5.54-6.23h4.63c10.69,0,21.82,3.3,33.4,9.91c6.46,5.22,9.69,10.37,9.69,15.45v0.27
		c0,14.84-7.69,42.79-23.06,83.84c-8.35,21.02-16.18,36.08-23.49,45.17c-6.36,8.59-11.81,12.89-16.35,12.89h-0.48
		c-7.28,0-15.64-7.3-25.09-21.89c-4.94-9.77-7.4-16.05-7.4-18.86h-0.21c-10.69,30.54-19.76,45.81-27.22,45.81h-2.29
		c-4.3,0-9.59-4.21-15.87-12.62c-5.01-6.07-8.24-11.15-9.69-15.23c-4.05-6.29-8.27-16.81-12.68-31.59
		c-2.91-9.55-6.21-29.05-9.91-58.49c-0.92-10.79-1.39-18.87-1.39-24.24c0-10.05,0.92-15.8,2.77-17.26
		c3.87-4.08,10.08-8.01,18.64-11.77c6.11-3.27,13.26-6.18,21.47-8.74H121.58z M88.87,110.47v0.21c0,2.95,0.85,5.1,2.56,6.45h0.21
		c1.03,0,2.65-1.62,4.85-4.85c4.12-4.9,6.57-7.35,7.35-7.35c7.07-3.2,10.6-6.43,10.6-9.69v-0.48c0-1.92-1.23-2.98-3.68-3.2
		c-2.98,0-7.67,1.99-14.06,5.97C91.48,101.33,88.87,105.64,88.87,110.47z M147.71,146.96c-2.29,3.8-2.02,5.1,0.83,3.89
		c2.84-1.21,4.67-2.41,5.49-3.62c1.14-0.82,2.56-2.52,4.26-5.11c2.06-3.05,6.05-5.59,11.98-7.62c1.31-0.57,1.9-1.63,1.76-3.2
		c-0.85-2.49-3.16-3.73-6.92-3.73c-4.69,0-9.06,3.76-13.1,11.29C151.43,140.46,150,143.16,147.71,146.96z M194.23,128.05
		c-2.98,7.67-3.17,10.69-0.56,9.06c2.61-1.63,4.23-3.11,4.87-4.42c0.99-0.99,4.24-8.77,9.75-23.33c0.57-2.84,3.99-5.97,10.28-9.38
		c1.21-0.75,1.62-1.88,1.23-3.41c-1.21-2.31-3.68-3.18-7.4-2.61c-4.62,0.75-8.35,5.15-11.19,13.21
		C199.54,113.42,197.22,120.38,194.23,128.05z"/>
	<path d="M307.64,73.56h6.23c24.22,0,53.02,2.84,86.4,8.52c6.29,3.73,9.43,9.2,9.43,16.41v0.91c0,7.07-1.83,14.6-5.49,22.58
		c-1.28,1.85-3.29,2.77-6.02,2.77c-11.9,1.53-24.49,2.82-37.77,3.89v0.27c0.92,10.8,1.38,20.38,1.38,28.76
		c0,25.85-2.93,56.2-8.79,91.03c-2.34,4.62-8.72,6.92-19.12,6.92h-5.54c-9.98,0-15.8-2.08-17.47-6.23
		c-5.08-40.66-7.62-75.99-7.62-106v-11.51c-3.8,0.14-6.71,0.21-8.74,0.21c-19.07,0-28.6-0.37-28.6-1.12
		c-2.81-2.48-4.49-5.41-5.06-8.79c-1.38-4.97-2.08-12.34-2.08-22.11c0-11.54,1.39-18.68,4.15-21.41c1.85-1.85,12.38-3.39,31.59-4.63
		C294.54,73.76,298.9,73.6,307.64,73.56z M293.58,85.12c-2.88,0-5.95,0.14-9.21,0.43l-0.43-0.21c-6.04,0-10.19,2.54-12.46,7.62
		c-0.32,1.42-0.48,2.58-0.48,3.46c0.35,3.2,1.44,4.79,3.25,4.79h0.43c0.67,0,2.68-0.99,6.02-2.98c2.88-2.59,5.1-3.89,6.66-3.89v0.21
		c0.5-0.14,1.88-0.37,4.15-0.69v0.21c0.82-0.28,2.43-0.43,4.85-0.43c0-0.18,0.07-0.27,0.21-0.27v0.27l0.48-0.27h1.86l1.39-0.21
		c0.14,0,0.21,0.07,0.21,0.21l1.17-0.21h2.08l0.43-0.21v0.21l0.48-0.21c0.14,0,0.21,0.07,0.21,0.21l0.48-0.21h4.37
		c0.35,0,0.66-0.09,0.91-0.27c0.18,0,0.27,0.09,0.27,0.27c1.53-0.18,2.68-0.27,3.46-0.27h9.43c0.14,0,0.21,0.09,0.21,0.27l0.48-0.27
		h0.48c0.14,0,0.21,0.09,0.21,0.27l0.48-0.27h3.2c0.14,0,0.21,0.09,0.21,0.27l0.48-0.27c0.14,0,0.21,0.09,0.21,0.27
		c0.32-0.18,0.55-0.27,0.69-0.27c1.38,0.18,2.24,0.27,2.56,0.27v-0.27l0.48,0.27h2.29c0.14,0,0.21,0.07,0.21,0.21
		c0.14,0,0.21-0.07,0.21-0.21l0.96,0.21c0.92,0,4.46,0.16,10.6,0.48c0,0.14,0.07,0.21,0.21,0.21c0-0.14,0.07-0.21,0.21-0.21v0.21
		c0.18,0,0.27-0.07,0.27-0.21c5.08,0.5,7.62,0.8,7.62,0.91l0.43-0.21c1.1,0,2.18,0.14,3.25,0.43l0.43-0.21
		c0.78,0,1.17,0.16,1.17,0.48l0.48-0.27c0.14,0,0.21,0.09,0.21,0.27c0.14,0,0.21-0.09,0.21-0.27c5.75,0.64,9.61,1.1,11.56,1.38
		v-0.21l1.6,0.48v-0.27c0.35,0.14,1.35,0.3,2.98,0.48l0.48-0.21l0.43,0.21c0.28-0.14,0.6-0.21,0.96-0.21c0.14,0,0.21,0.07,0.21,0.21
		c1.56,0,2.65-0.53,3.25-1.6v-0.27c0-2.31-5.15-3.91-15.45-4.79c-21.63-3.09-36.99-4.63-46.08-4.63c0-0.14-0.09-0.21-0.27-0.21v0.21
		c-0.14,0-0.21-0.07-0.21-0.21c-6.14-0.18-10.76-0.27-13.85-0.27h-13.1l-0.48,0.27v-0.27C293.99,85.03,293.75,85.12,293.58,85.12z"
		/>
	<path d="M508.19,69.67h9.22c21.87,0,34.32,0.76,37.34,2.29c8.13,3.84,12.2,11.2,12.2,22.11v3.25c0,10.16-3.07,24.36-9.22,42.61
		c-3.2,7.85-7.05,11.77-11.56,11.77c-14.49,0.92-27.08,1.38-37.77,1.38h-4.15c-7.28,0-13.58-0.23-18.91-0.69l4.42,13.1h0.43
		c17.33-5.04,32.47-7.56,45.44-7.56c2.31,0,4.37,1.83,6.18,5.49c0.64,1.74,0.96,3.98,0.96,6.71c0,8.1-1.85,15.23-5.54,21.41
		c-1.14,1.21-2.98,2.06-5.54,2.56c-7.03,1.67-14.56,2.5-22.59,2.5c-2.1,0-5.86-0.14-11.29-0.43c2.31,8.91,3.46,17.13,3.46,24.66
		v4.79c0,10.51-2.38,20.28-7.14,29.3c-2.91,4.3-6.37,6.45-10.39,6.45h-0.91c-4.05,0-8.58-2.22-13.58-6.66
		c-34.73-46.06-52.1-85.01-52.1-116.87c0.11-31.29,8.49-50.87,25.14-58.75C455.61,72.81,477.58,69.67,508.19,69.67z M432.6,115.96
		v0.69c0,2.31,0.37,3.46,1.12,3.46c0.85-0.71,3.02-4.71,6.5-11.98c3.87-6.57,9.16-11.03,15.87-13.37
		c12.29-5.36,36.03-8.04,71.22-8.04c6.92,0,10.46-0.53,10.6-1.6v-0.48c0-1.99-11.59-2.98-34.78-2.98c-32.99,0-53.05,3.6-60.19,10.81
		C436.05,98.58,432.6,106.41,432.6,115.96z M497.32,174.5v0.21c0,1.03,2.08,1.65,6.23,1.86h1.86c9.38,0,14.06-2.68,14.06-8.04
		c0-2.31-0.85-3.62-2.56-3.94h-0.69c-1.39,0.43-5.38,2.43-11.99,6.02C499.63,171.82,497.32,173.12,497.32,174.5z"/>
	<path d="M635.92,76.33c37.18,0,65.84,8.08,85.97,24.24c8.74,7.6,13.1,15.5,13.1,23.7v3.94c0,9.66-6.37,21.56-19.12,35.69
		c-8.91,8.38-17.21,14.29-24.88,17.74c-7.39,3.41-14.06,5.79-20.03,7.14v0.27c6.14,5.86,11.9,9.69,17.26,11.51
		c8.31,1.85,14.15,3.37,17.53,4.58c3.98,1.88,5.96,4.19,5.96,6.92c-1.14,8.02-3.21,14.86-6.23,20.51
		c-8.38,15.84-14.75,23.76-19.12,23.76h-0.69c-3.3-0.5-8.75-4.19-16.35-11.08c-9.34-9.55-17.56-19.39-24.66-29.51
		c-4.97-6.96-8.81-12.78-11.51-17.47h-0.21v0.21c4.76,27.27,7.3,42.49,7.62,45.65c-1.24,5.36-6.39,8.04-15.45,8.04h-2.08
		c-11.33,0-19.55-1.46-24.66-4.37c-1.17-0.89-2.1-3.13-2.77-6.71c-14.13-53.76-21.2-103.14-21.2-148.13v-0.48
		c0-2.95,2.61-5.95,7.83-9C592.03,78.71,609.93,76.33,635.92,76.33z M586.86,100.78v0.91c0,2.45,0.99,4.3,2.98,5.54
		c0.57,0,2.25-1.15,5.06-3.46c3.76-3.23,6.3-4.85,7.62-4.85c6.92-1.38,11.52-2.08,13.8-2.08c0.18,0,0.27-0.07,0.27-0.21
		c0.14,0,0.21,0.07,0.21,0.21c1.21-0.28,2.66-0.43,4.37-0.43h0.21l0.48-0.27c0,0.18,0.07,0.27,0.21,0.27c0-0.18,0.09-0.27,0.27-0.27
		v0.27l0.43-0.27c4.65-0.14,7.58-0.28,8.79-0.43v0.21l0.43-0.21h4.85c0.18,0,0.27-0.09,0.27-0.27l0.43,0.27
		c0.18,0,0.27-0.09,0.27-0.27l0.43,0.27l0.48-0.27v0.27l0.48-0.27c0.14,0,0.21,0.09,0.21,0.27l0.48-0.27c0.14,0,0.37,0.09,0.69,0.27
		l1.12-0.27c0.14,0,0.21,0.09,0.21,0.27l1.17-0.27h6.45c0.18,0,0.27,0.09,0.27,0.27l0.43-0.27c0.28,0.18,0.6,0.27,0.96,0.27v-0.27
		l0.43,0.27h1.17c1.07,0,2.75,0.07,5.06,0.21v-0.21l0.48,0.21h2.29c0.53,0,1.23,0.07,2.08,0.21c0.28-0.14,0.51-0.21,0.69-0.21
		c0,0.14,0.07,0.21,0.21,0.21v-0.21l0.48,0.21h0.91c0.35,0,0.66-0.07,0.91-0.21c0.46,0.14,0.69,0.3,0.69,0.48l0.48-0.27h0.91
		l0.48,0.27v-0.27l0.48,0.27h1.6c0.14,0,0.21-0.09,0.21-0.27l0.48,0.27h0.21c0.18,0,0.27-0.09,0.27-0.27l0.43,0.27
		c1.31,0,2.31-0.16,2.98-0.48c0.32,0.14,0.55,0.21,0.69,0.21c-0.04-0.57-0.73-1.26-2.08-2.08c0,0.18-0.07,0.27-0.21,0.27
		c0-0.18-0.84-0.64-2.5-1.38v0.21c-10.41-3.69-24.77-5.54-43.09-5.54c-22.05,0-34.66,2.01-37.82,6.02
		C587.93,95.88,586.86,98.26,586.86,100.78z M625.32,146.64c0,9.94,1.23,16.39,3.68,19.34c0.46,0,0.69,0.07,0.69,0.21
		c6.14-1.21,11.06-2.8,14.75-4.79c5.08-3.23,7.62-7.08,7.62-11.56c0-1.95-1.54-3.94-4.63-5.97c-5.72-1.53-10.25-2.29-13.58-2.29
		C628.16,141.58,625.32,143.27,625.32,146.64z M640.77,170.08c-0.11,0.64,0.69,1.07,2.4,1.28c0.82,0.07,1.51,0.07,2.08,0
		c4.23-0.43,7.65-2.73,10.28-6.92c0-0.07,0.18-0.5,0.53-1.28c0.11-1.53-0.3-2.25-1.23-2.18c-0.64,0.07-2.27,1.15-4.9,3.25
		c-3.66,2.38-6.43,4.01-8.31,4.9C641.12,169.55,640.84,169.87,640.77,170.08z"/>
	<path d="M768.02,77.29h1.6c6.25,0,13.55,2.29,21.89,6.87c1.85,1.38,2.77,3.92,2.77,7.62c3.55,40.63,5.33,76.81,5.33,108.56v8.74
		c0,24.43-0.53,36.65-1.6,36.65c-0.75,1.78-2.82,3.46-6.23,5.06c-4.62,1.7-11.31,2.56-20.08,2.56c-13.5,0-21.79-1.7-24.88-5.11
		c-2.24-2.13-3.69-17.72-4.37-46.77v-5.06c0-29.86,3.3-65.96,9.91-108.29C755.95,80.89,761.17,77.29,768.02,77.29z M759.34,100.19
		c0,1.31,0.76,3.66,2.29,7.03h0.69c9.41-6.07,14.12-10.94,14.12-14.6v-1.76c-0.71-2.34-2.1-3.52-4.16-3.52H770
		c-3.94,0-7.37,3.02-10.28,9.06C759.71,96.55,759.59,97.81,759.34,100.19z"/>
	<path d="M850.16,82.77h5.06c34.23,0,65.18,13.67,92.84,41.02c16.44,16.97,24.66,33.72,24.66,50.23c0,21.2-12.59,41.71-37.77,61.52
		c-15.45,11.08-32.35,16.62-50.71,16.62c-16.97,0-34.87-4.62-53.69-13.85c-5.08-5.58-9.53-15.09-13.37-28.55
		c-2.95-10.23-5.7-26.67-8.26-49.33c-1.24-11.79-1.86-21.38-1.86-28.76v-8.31c0-19.89,4.07-32.17,12.2-36.86
		c0-0.6,6.46-1.69,19.39-3.25C843.2,82.93,847.04,82.77,850.16,82.77z M821.13,108.13c0.39,3.09,0.92,4.63,1.6,4.63h0.48
		c0.18,0,1.17-0.92,2.98-2.77c6.29-5.68,11.43-8.52,15.45-8.52c1.6-0.43,9.27-1.19,23.01-2.29c0.92-0.39,1.38-0.71,1.38-0.96v-0.21
		c-4.47-1.99-10.92-2.98-19.34-2.98h-8.52c-8.84,0-14.29,3.14-16.35,9.43C821.36,105.45,821.13,106.67,821.13,108.13z M860.55,172.9
		v1.12c0,8.81,1.69,17.88,5.06,27.22c1.42,1.06,3.34,1.6,5.75,1.6c6.68,0,13.28-1.85,19.82-5.54c3.69-3.37,5.54-6.98,5.54-10.81
		c0-6.39-4.46-12.38-13.37-17.95c-4.65-2.02-9.41-3.04-14.28-3.04h-0.48c-4.76,0-7.14,0.69-7.14,2.08
		C860.96,167.58,860.66,169.35,860.55,172.9z M872.53,215.04c0,1.85,2.98,2.93,8.95,3.25c9.38,0,17.6-4.62,24.66-13.85
		c2.17-3.69,3.25-6.84,3.25-9.43c-0.43-2.91-1.05-4.37-1.86-4.37h-0.48c-1.14,0-2.89,1.85-5.27,5.54
		c-5.04,7.39-13.1,12.68-24.18,15.87C874.22,212.69,872.53,213.69,872.53,215.04z"/>
	<path d="M1071.65,73.56c17.22,0,34.82,6.92,52.79,20.77c3.69,3.84,5.54,8.98,5.54,15.45c0,12.71-7,29.76-20.99,51.14
		c-1.88,1.07-4.03,1.6-6.45,1.6c-5.58,0-16.33-2.45-32.28-7.35c-3.27-0.64-5.95-0.96-8.04-0.96h-2.08
		c-9.91,0-17.21,5.54-21.89,16.62c-0.92,1.81-1.62,4.72-2.08,8.74c0,7.28,4.53,13.81,13.58,19.6c3.37,1.7,6.3,2.56,8.79,2.56h1.38
		c6.92,0,14.83-4.31,23.7-12.94c7.53-6.61,14.29-9.91,20.29-9.91h0.91c4.69,0,8.77,2.31,12.25,6.92c5.36,10.9,8.04,22.19,8.04,33.88
		c0,13.39-3.37,26.53-10.12,39.42c-5.61,5.04-10.92,7.56-15.93,7.56h-1.81c-7.03,0-13.96-4.37-20.77-13.1
		c-1.88-3.55-3.34-7.85-4.37-12.89c0-0.18-0.07-0.27-0.21-0.27c-12.93,7.24-24.75,10.87-35.48,10.87
		c-24.96,0-42.95-19.98-53.96-59.93c-1.53-7.42-2.29-14.03-2.29-19.82v-3.46c0-27.13,14.06-52.33,42.19-75.59
		C1038.35,79.86,1054.78,73.56,1071.65,73.56z M995.42,153.51v2.56c0,1.17,0.3,1.86,0.91,2.08c0.85,0,3.23-4.62,7.14-13.85
		c4.01-8.24,8.93-15.54,14.75-21.89c0.32-1.07,4.62-5.36,12.89-12.89c9.06-6.78,16.19-11.01,21.41-12.68
		c5.82-2.31,13.81-4.46,23.97-6.45l1.17-1.12c0-1.6-3.92-2.68-11.77-3.25h-0.43c-17.47,0-35.6,10.67-54.39,32.01
		C1000.64,132.1,995.42,143.92,995.42,153.51z M1056.25,213.7v0.21c0,1.7,2.29,2.7,6.87,2.98c0.6,0.14,1.15,0.21,1.65,0.21
		c8.49,0,17.7-3.84,27.65-11.51c5.36-3.12,8.04-5.97,8.04-8.52v-0.69c0-1.31-1-2.15-2.98-2.5c-2.02,0-7.56,3.07-16.62,9.22
		c-4.12,2.95-11.95,6.09-23.49,9.43C1056.62,213.17,1056.25,213.56,1056.25,213.7z"/>
	<path d="M1219.67,74.52c13.96,0,29.63,1.76,47.04,5.27c7.95,2.31,13.17,4.92,15.66,7.83c1.24,1.07,1.86,4.6,1.86,10.6
		c0.14,3.23,0.21,5.47,0.21,6.71c0,15.66-2.91,25.18-8.74,28.55c-7,5.08-20.76,7.62-41.28,7.62c-8.49,0-18.32-0.46-29.51-1.39
		c0.32,3.84,0.48,7.3,0.48,10.39c-0.14,1.31-0.21,2.08-0.21,2.29c12.93-2.45,22.44-3.68,28.55-3.68h3.68c5.4,0,8.1,2.22,8.1,6.66
		v0.69c0,4.79-1.92,10.48-5.75,17.05c-4.33,5.54-12.41,8.31-24.24,8.31h-3.41c-0.82,0-2.13-0.07-3.94-0.21
		c0,1.31,0.07,2.68,0.21,4.1c-0.14,3.73-0.29,6.13-0.43,7.19h0.21c20.74-4.01,36.79-6.02,48.15-6.02h2.77
		c8.77,0,14.92,1.54,18.43,4.63c12.14,9.66,18.22,18.32,18.22,25.99v3.04c0,6.75-4.92,13.65-14.75,20.72
		c-22.12,8.31-44.62,12.46-67.49,12.46c-16.26,0-32.56-2.08-48.9-6.23c-3.73-2.52-7.17-7.9-10.33-16.14
		c-3.41-7.71-7.26-23.06-11.56-46.08c-3.52-19.96-5.27-36.1-5.27-48.42v-3.89c0-16.51,3.69-27.34,11.08-32.49
		C1167.15,83.04,1190.87,74.52,1219.67,74.52z M1151.71,120.11v1.6c0,2.31,0.53,3.46,1.6,3.46c1.74-1.31,4.21-4.46,7.4-9.43
		c6.46-8.7,19.6-15.61,39.42-20.72c11.26-2.48,24.01-3.73,38.25-3.73c0-0.14,0.92-0.28,2.77-0.43v-0.48
		c-7.92-2.45-17.52-3.68-28.82-3.68c-21.02,0-38.76,6.21-53.21,18.64C1154.17,110.58,1151.71,115.5,1151.71,120.11z M1216,204.01
		c0,1.88,3.69,3.04,11.08,3.46c3.2-0.18,12.87-1.49,29.03-3.94c1.53-0.6,2.36-1.14,2.5-1.6v-0.48c-1.17-1.85-5.01-2.77-11.51-2.77
		h-12.89C1222.07,199.64,1216,201.42,1216,204.01z"/>
</g>
</svg>
